<?xml version="1.0" encoding="utf-8"?>
<!-- Generator: Adobe Illustrator 22.0.1, SVG Export Plug-In . SVG Version: 6.00 Build 0)  -->
<svg version="1.1" id="Layer_1" xmlns="http://www.w3.org/2000/svg" xmlns:xlink="http://www.w3.org/1999/xlink" x="0px" y="0px"
	 viewBox="0 0 40 40" style="enable-background:new 0 0 40 40;" xml:space="preserve">
<style type="text/css">
	.st0{fill:#01A67C;}
	.st1{fill:#FFFFFF;}
	.st2{fill:#CCCCCC;}
	.st3{fill:#E0CE2D;}
	.st4{fill:#FFFFFF;stroke:#01A67C;stroke-width:2.2105;stroke-miterlimit:10;}
	.st5{fill:#FFFFFF;stroke:#01A67C;stroke-width:1.3609;stroke-miterlimit:10;}
	.st6{fill:#11B68D;}
</style>
<g>
	<ellipse class="st1" cx="19" cy="16.3" rx="5.3" ry="5.7"/>
	<path class="st0" d="M19,8c-4.6,0-8.4,3.8-8.4,8.4c0,1.8,0.6,3.6,1.7,5l6.2,8.3c0,0,0,0,0.1,0c0.3,0.3,0.8,0.2,1,0
		c1.8-2.4,5.1-6.8,6.3-8.5c0,0,0,0,0,0l0,0c1-1.4,1.5-3.1,1.5-4.9C27.4,11.8,23.6,8,19,8z M19,20.9c-2.5,0-4.5-2-4.5-4.5
		s2-4.5,4.5-4.5s4.5,2,4.5,4.5S21.5,20.9,19,20.9z"/>
</g>
</svg>
