<svg xmlns="http://www.w3.org/2000/svg" viewBox="0 0 19 26.79"><defs><style>.cls-1{fill:#01a67c;}</style></defs><title>book-icon</title><g id="Layer_2" data-name="Layer 2"><g id="Layer_1-2" data-name="Layer 1"><path class="cls-1" d="M18.77,23.6h0V0H0V23.6H18.32a2.33,2.33,0,0,1-.42,2.74l0,0H0v.42H18.05l.15-.15A2.76,2.76,0,0,0,18.77,23.6Zm-4.16-3.37H4.18V8.86A3.77,3.77,0,0,1,6.67,5.32a3.84,3.84,0,0,0,1.38-.88L9.39,3.37l1.35,1.07a3.84,3.84,0,0,0,1.38.88,3.79,3.79,0,0,1,2.49,3.54Z"/><path class="cls-1" d="M18,24.92a.83.83,0,0,0-.83-.82H.55v1.65H17.13A.83.83,0,0,0,18,24.92Z"/><polygon class="cls-1" points="8.01 15.12 11.33 12.9 8.01 10.69 8.01 15.12"/></g></g></svg>