<?xml version="1.0" encoding="utf-8"?>
<!-- Generator: Adobe Illustrator 22.0.1, SVG Export Plug-In . SVG Version: 6.00 Build 0)  -->
<svg version="1.1" id="Layer_1" xmlns="http://www.w3.org/2000/svg" xmlns:xlink="http://www.w3.org/1999/xlink" x="0px" y="0px"
	 viewBox="0 0 25 25" style="enable-background:new 0 0 25 25;" xml:space="preserve">
<style type="text/css">
	.st0{fill-rule:evenodd;clip-rule:evenodd;fill:#FFFFFF;}
	.st1{fill:#01A67C;}
	.st2{fill:#FFFFFF;}
	.st3{fill:#CCCCCC;}
	.st4{fill:#E0CE2D;}
	.st5{fill:#FFFFFF;stroke:#01A67C;stroke-width:2.2105;stroke-miterlimit:10;}
	.st6{fill:#FFFFFF;stroke:#01A67C;stroke-width:1.3609;stroke-miterlimit:10;}
	.st7{fill:#11B68D;}
	.st8{fill-rule:evenodd;clip-rule:evenodd;fill:#01A67C;}
</style>
<rect x="0" y="0.1" class="st0" width="25" height="25"/>
<path class="st1" d="M21.4,10.3c-0.1-0.1-0.2-0.2-0.3-0.2h-1.6C19,9.1,18.5,8,17.9,7.6c-2.1-1.4-7.5-1.4-9.6,0
	C7.7,8,7.2,9.1,6.8,10.1H5.2c-0.1,0-0.3,0.1-0.3,0.2c-0.1,0.1-0.1,0.2-0.1,0.4L5,11.8c0,0.2,0.2,0.3,0.4,0.3h0.5
	c-0.5,0.5-0.7,1.2-0.7,1.9c0,0.8,0.3,1.6,0.9,2.1c0,0,0,0,0,0v1.6c0,0.4,0.3,0.6,0.6,0.6h1.5c0.4,0,0.6-0.3,0.6-0.6v-0.7h8.4v0.7
	c0,0.4,0.3,0.6,0.6,0.6h1.5c0.4,0,0.6-0.3,0.6-0.6v-1.6c0.6-0.6,0.9-1.3,0.9-2.1c0-0.7-0.2-1.4-0.7-2h0.5c0.2,0,0.4-0.1,0.4-0.3
	l0.2-1.2C21.5,10.5,21.5,10.4,21.4,10.3L21.4,10.3z M9,8.7c1.6-1.1,6.5-1.1,8.2,0c0.3,0.2,0.7,1.1,1.1,2.1H7.9
	C8.3,9.8,8.7,8.9,9,8.7L9,8.7z M7.1,14.2c0-0.7,0.6-1.3,1.3-1.3c0.7,0,1.3,0.6,1.3,1.3c0,0.7-0.6,1.3-1.3,1.3
	C7.7,15.5,7.1,14.9,7.1,14.2L7.1,14.2z M17.9,15.5c-0.7,0-1.3-0.6-1.3-1.3c0-0.7,0.6-1.3,1.3-1.3c0.7,0,1.3,0.6,1.3,1.3
	C19.2,14.9,18.6,15.5,17.9,15.5L17.9,15.5z M17.9,15.5"/>
</svg>
