<svg xmlns="http://www.w3.org/2000/svg" viewBox="0 0 380.87 380.88"><defs><style>.cls-1{fill:#01a67c;}.cls-2{fill:#006f7b;}</style></defs><title>close</title><g id="Layer_2" data-name="Layer 2"><g id="Layer_1-2" data-name="Layer 1"><path class="cls-1" d="M262.48,118.42c12.81,12.82,11.86,34.54-2.13,48.52L57.75,369.54c-14,14-35.72,14.93-48.53,2.12s-11.87-34.55,2.11-48.54l202.61-202.6h0c14-14,35.71-14.92,48.52-2.11Z"/><path class="cls-2" d="M371.27,9.63a32.82,32.82,0,0,1,0,46.4L334.13,93.16a32.82,32.82,0,1,1-46.42-46.41L324.84,9.62l0,0a32.81,32.81,0,0,1,46.4,0Z"/><path class="cls-1" d="M9.21,10.43a32.84,32.84,0,0,1,46.43-.81L371.26,325.24a32.83,32.83,0,0,1-46.42,46.42L9.21,56A32.84,32.84,0,0,1,9.21,10.43Z"/></g></g></svg>