<?xml version="1.0" encoding="utf-8"?>
<!-- Generator: Adobe Illustrator 23.0.2, SVG Export Plug-In . SVG Version: 6.00 Build 0)  -->
<svg version="1.1" id="Layer_1" xmlns="http://www.w3.org/2000/svg" xmlns:xlink="http://www.w3.org/1999/xlink" x="0px" y="0px"
	 viewBox="0 0 40 40" style="enable-background:new 0 0 40 40;" xml:space="preserve">
<path d="M19.8,27.1c0.2,0.2,0.5,0.3,0.8,0.3s0.6-0.1,0.8-0.3l7-8c0.3-0.3,0.3-0.7,0.2-1.1s-0.5-0.6-0.9-0.6h-4v-13c0-0.6-0.4-1-1-1
	h-4c-0.6,0-1,0.4-1,1v13h-4c-0.4,0-0.8,0.2-0.9,0.6c-0.2,0.4-0.1,0.8,0.2,1.1L19.8,27.1z"/>
<path d="M31.6,25.5v6H9.5v-6h-4v8c0,1.1,0.9,2,2,2h26.1c1.1,0,2-0.9,2-2v-8H31.6z"/>
</svg>
