<?xml version="1.0" encoding="utf-8"?>
<!-- Generator: Adobe Illustrator 22.0.1, SVG Export Plug-In . SVG Version: 6.00 Build 0)  -->
<svg version="1.1" id="Layer_1" xmlns="http://www.w3.org/2000/svg" xmlns:xlink="http://www.w3.org/1999/xlink" x="0px" y="0px"
	 viewBox="0 0 40 40" style="enable-background:new 0 0 40 40;" xml:space="preserve">
<style type="text/css">
	.st0{fill:#01A67C;}
	.st1{fill:#FFFFFF;}
	.st2{fill:#CCCCCC;}
</style>
<circle class="st1" cx="21" cy="16.5" r="8.5"/>
<g>
	<path class="st0" d="M31,16.7c0-0.1,0-0.1,0-0.2c0-5.5-4.5-10-10-10s-10,4.5-10,10c0,0.1,0,0.1,0,0.2h0l0,0c0,2.7,1.1,5.1,2.9,6.9
		c1.4,1.5,2.7,3.1,3.8,4.8l3.3,5.1l3.3-5.2c1.1-1.7,2.3-3.3,3.8-4.8C29.8,21.8,30.9,19.4,31,16.7L31,16.7C31,16.7,31,16.7,31,16.7z
		 M21,24.4c-4.2,0-7.5-3.4-7.5-7.5s3.4-7.5,7.5-7.5c4.2,0,7.5,3.4,7.5,7.5S25.2,24.4,21,24.4z"/>
	<path class="st0" d="M21.1,12.4v-0.7c0.1,0,0.2,0,0.2,0c0.2-0.1,0.3-0.2,0.3-0.4c-0.1,0.1-0.2,0.1-0.3,0.1c-0.1,0-0.2,0-0.3-0.1
		c-0.1-0.1-0.1-0.1-0.1-0.2c0-0.1,0-0.2,0.1-0.3c-0.2,0-0.3,0.2-0.3,0.3c0,0.2,0,0.4,0.2,0.5c0,0,0,0,0,0v0.8
		c-0.6,0.9-3.1,1.8-3.9,3.1c-0.9,1.4,0.1,3.4,0.1,3.4h3.8h0.1h3.8c0,0,1.1-1.9,0.1-3.4C24.2,14.2,21.7,13.3,21.1,12.4z"/>
	<path class="st0" d="M24.5,19.3h-6.9c-0.4,0-0.7,0.3-0.7,0.7v0.5h8.4V20C25.2,19.6,24.9,19.3,24.5,19.3z"/>
</g>
</svg>
