<?xml version="1.0" encoding="utf-8"?>
<!-- Generator: Adobe Illustrator 22.0.1, SVG Export Plug-In . SVG Version: 6.00 Build 0)  -->
<svg version="1.1" id="Layer_1" xmlns="http://www.w3.org/2000/svg" xmlns:xlink="http://www.w3.org/1999/xlink" x="0px" y="0px"
	 viewBox="0 0 25 25" style="enable-background:new 0 0 25 25;" xml:space="preserve">
<style type="text/css">
	.st0{fill-rule:evenodd;clip-rule:evenodd;fill:#FFFFFF;}
	.st1{fill:#01A67C;}
	.st2{fill:#FFFFFF;}
	.st3{fill:#CCCCCC;}
	.st4{fill:#E0CE2D;}
	.st5{fill:#FFFFFF;stroke:#01A67C;stroke-width:2.2105;stroke-miterlimit:10;}
	.st6{fill:#FFFFFF;stroke:#01A67C;stroke-width:1.3609;stroke-miterlimit:10;}
	.st7{fill:#11B68D;}
	.st8{fill-rule:evenodd;clip-rule:evenodd;fill:#01A67C;}
</style>
<rect x="0.1" y="0.1" class="st0" width="25" height="25"/>
<g>
	<path class="st8" d="M12,13l-1.8,1.9l0-1c0-0.2-0.2-0.4-0.4-0.4c-0.2,0-0.4,0.2-0.4,0.4v1.9c0,0.1,0,0.2,0.1,0.3
		c0.1,0.1,0.2,0.1,0.3,0.1h1.9c0.2,0,0.4-0.2,0.4-0.4c0-0.2-0.2-0.4-0.4-0.4h-1l1.9-1.9L12,13z M11.8,9.2c0.2,0,0.4-0.2,0.4-0.4
		c0-0.2-0.2-0.4-0.4-0.4H9.8c-0.1,0-0.2,0-0.3,0.1C9.5,8.6,9.4,8.7,9.4,8.8v1.9c0,0.2,0.2,0.4,0.4,0.4c0.2,0,0.4-0.2,0.4-0.4l0-1
		l1.8,1.9l0.5-0.5l-1.9-1.9H11.8z M16.8,13.5c-0.2,0-0.4,0.2-0.4,0.4l0,1L14.6,13L14,13.5l1.9,1.9h-1c-0.2,0-0.4,0.2-0.4,0.4
		c0,0.2,0.2,0.4,0.4,0.4h1.9c0.1,0,0.2,0,0.3-0.1c0.1-0.1,0.1-0.2,0.1-0.3v-1.9C17.2,13.6,17,13.5,16.8,13.5L16.8,13.5z M16.8,8.4
		h-1.9c-0.2,0-0.4,0.2-0.4,0.4c0,0.2,0.2,0.4,0.4,0.4h1L14,11.1l0.5,0.5l1.9-1.9l0,1c0,0.2,0.2,0.4,0.4,0.4c0.2,0,0.4-0.2,0.4-0.4
		V8.8c0-0.1,0-0.2-0.1-0.3C17,8.5,16.9,8.4,16.8,8.4L16.8,8.4z M17.9,6.1H8.7c-0.9,0-1.5,0.7-1.5,1.5v9.3c0,0.9,0.7,1.6,1.5,1.6h9.3
		c0.9,0,1.6-0.7,1.6-1.6V7.7C19.5,6.8,18.8,6.1,17.9,6.1L17.9,6.1z M18.7,16.9c0,0.4-0.3,0.8-0.8,0.8H8.7c-0.4,0-0.8-0.3-0.8-0.8
		V7.7c0-0.4,0.3-0.8,0.8-0.8h9.3c0.4,0,0.8,0.3,0.8,0.8V16.9z M18.7,16.9"/>
</g>
</svg>
