<svg xmlns="http://www.w3.org/2000/svg" viewBox="0 0 30.36 30.37"><defs><style>.cls-1{fill:#01a67c;}</style></defs><title>home-icon</title><g id="Layer_2" data-name="Layer 2"><g id="Layer_1-2" data-name="Layer 1"><path class="cls-1" d="M15.18,0A15.19,15.19,0,1,0,30.36,15.18,15.2,15.2,0,0,0,15.18,0Zm0,28.52A13.34,13.34,0,1,1,28.52,15.18,13.35,13.35,0,0,1,15.18,28.52Z"/><path class="cls-1" d="M16.08,8.49a1.27,1.27,0,0,0-1.79,0l-6,6A1,1,0,1,0,9.68,15.8l.81-.81v6.23a1,1,0,0,0,1,1h2.17V19.41a.39.39,0,0,1,.4-.4h2.21a.4.4,0,0,1,.4.4v2.83h2.17a1,1,0,0,0,1-1V15l.8.81a1,1,0,0,0,1.35,0,1,1,0,0,0,0-1.35Z"/></g></g></svg>