<?xml version="1.0" encoding="utf-8"?>
<!-- Generator: Adobe Illustrator 22.0.1, SVG Export Plug-In . SVG Version: 6.00 Build 0)  -->
<svg version="1.1" id="Layer_1" xmlns="http://www.w3.org/2000/svg" xmlns:xlink="http://www.w3.org/1999/xlink" x="0px" y="0px"
	 viewBox="0 0 450.4 317.2" style="enable-background:new 0 0 450.4 317.2;" xml:space="preserve">
<style type="text/css">
	.st0{fill:#99DBCB;}
	.st1{fill:#34B896;}
	.st2{fill:#E6E6E6;}
	.st3{fill:#B3B3B3;}
</style>
<rect class="st0" width="452" height="317"/>
<g>
	<path class="st1" d="M234.4,60.7c5.7,0,10.7-3.1,13.3-7.7c-1.9,0.8-3.9,1.2-6,1.2c-8.5,0-15.4-6.9-15.4-15.4c0-2.8,0.7-5.4,2-7.7
		c-5.5,2.3-9.3,7.8-9.3,14.1C219,53.8,225.9,60.7,234.4,60.7z"/>
	<path class="st1" d="M402.4,264.3h-16.3c-0.8-25.9-2.3-69.4-3.2-102.7h3.3c2,0,3.6-1.6,3.6-3.6c0-1-0.4-1.9-1.1-2.6
		c-0.7-0.7-1.6-1.1-2.6-1.1h-3.6c-0.6-21.9-1-38-0.7-39c0.8-3.4,5.7-7.1,5.7-7.1v-2.3h-8V89.2h4.1c1,0,1.9-0.8,1.9-1.9
		s-0.8-1.9-1.9-1.9h-4.6c1.9-1.6,5.5-5.2,5-10.2c-0.6-6.5-16.1-23.7-17.1-24.8v-0.1c0,0,0,0,0,0c0,0,0,0,0,0v0.1
		c-1.1,1.2-16.6,18.3-17.1,24.8c-0.4,5,3.1,8.7,5,10.2h-4.7c-1,0-1.9,0.8-1.9,1.9s0.8,1.9,1.9,1.9h4.4v16.7h-7.3v2.3
		c0,0,4.9,3.7,5.7,7.1c0.2,1-0.1,17.1-0.7,39h-4.8c-2,0-3.6,1.6-3.6,3.6c0,1,0.4,1.9,1.1,2.6c0.6,0.6,1.5,1.1,2.5,1.1h4.5
		c-0.3,11.3-0.7,23.6-1.1,36.1c-19.4-4.8-38.7-8.3-55.8-10.8v-22.6h4.2c2.3,0,4.2-1.9,4.2-4.2c0-2.3-1.9-4.2-4.2-4.2h-10.5
		c0,0,30-45.1-54.6-91.5C149.4,111,179.5,156,179.5,156h-10.5c-2.3,0-4.2,1.9-4.2,4.2c0,2.3,1.9,4.2,4.2,4.2h4.2V187
		c-16.5,2.4-34.9,5.7-53.6,10.3c-0.4-12.3-0.8-24.5-1.1-35.6h3.4c2,0,3.6-1.6,3.6-3.6c0-1-0.4-1.9-1.1-2.6c-0.6-0.7-1.5-1.1-2.5-1.1
		h-3.6c-0.6-21.9-1-38-0.7-39c0.8-3.4,5.8-7.1,5.8-7.1v-2.3h-8V89.2h4.1c1,0,1.9-0.8,1.9-1.9s-0.8-1.9-1.9-1.9h-4.6
		c1.9-1.5,5.5-5.2,5-10.2c-0.6-6.5-16.1-23.7-17.1-24.8l0-0.1c0,0,0,0,0,0c0,0,0,0,0,0v0.1c-1.1,1.2-16.6,18.3-17.1,24.8
		c-0.4,5,3.2,8.7,5,10.2h-4.7c-1,0-1.9,0.8-1.9,1.9s0.8,1.9,1.9,1.9H90v16.7h-7.3v2.3c0,0,4.9,3.7,5.7,7.1c0.2,1-0.1,17.1-0.7,39
		h-4.7c-2,0-3.6,1.6-3.6,3.6c0,1,0.4,1.9,1.1,2.6c0.7,0.6,1.6,1.1,2.6,1.1h4.5c-1,33.4-2.4,76.9-3.2,102.7H66.8
		c-1.4,0-2.6,1.2-2.6,2.6s1.2,2.6,2.6,2.6h335.6c1.4,0,2.6-1.2,2.6-2.6S403.8,264.3,402.4,264.3z M367.8,211.5c1.1,0,2,0.9,2,2v11.1
		h-4v-11.1C365.8,212.4,366.7,211.5,367.8,211.5z M365.8,189.1V178c0-1.1,0.9-2,2-2c1.1,0,2,0.9,2,2v11.1H365.8z M370,92.7
		c0-1.1,0.9-2,2-2c1.1,0,2,0.9,2,2v11.1h-4V92.7z M365.9,123.9c2.6-0.6,4.8,1.3,4.8,3.8v21.8H363v-21.7
		C363,126,364.2,124.3,365.9,123.9z M359.3,92.6c0-1.1,0.9-2,2-2c1.1,0,2,0.9,2,2v11.1h-4V92.6z M105.5,92.7c0-1.1,0.9-2,2-2
		c1.1,0,2,0.9,2,2v11.1h-4V92.7z M101.5,123.9c2.6-0.6,4.9,1.3,4.9,3.8v21.8h-7.8v-21.7C98.5,126,99.7,124.3,101.5,123.9z
		 M101.4,189.1V178c0-1.1,0.9-2,2-2c1.1,0,2,0.9,2,2v11.1H101.4z M105.3,213.5v11.1h-4v-11.1c0-1.1,0.9-2,2-2
		C104.4,211.5,105.3,212.4,105.3,213.5z M94.8,92.6c0-1.1,0.9-2,2-2c1.1,0,2,0.9,2,2v11.1h-4V92.6z M129.4,264.3V223
		c0-3,1.2-5.8,3.3-7.9c1.5-1.5,2.7-2.5,2.7-2.5s1.3,1,2.7,2.5c2.1,2.1,3.3,4.9,3.3,7.9v41.3H129.4z M150.7,264.3v-45.5
		c0-3,1.2-5.8,3.3-7.9c1.5-1.4,2.7-2.5,2.7-2.5s1.3,1,2.7,2.5c2.1,2.1,3.3,4.9,3.3,7.9v45.5H150.7z M181.4,264.3v-45
		c0-5.4,2.2-10.6,6.1-14.4c2.7-2.7,5-4.5,5-4.5s2.3,1.9,5,4.5c3.9,3.8,6.1,9,6.1,14.4v45H181.4z M211.9,264.3V227
		c0-10.9,4.3-21.4,12.2-29.1c5.5-5.3,10-9.1,10-9.1s4.6,3.8,10,9.1c7.8,7.6,12.2,18.1,12.2,29.1v37.3H211.9z M264.6,264.3v-45
		c0-5.4,2.2-10.6,6.1-14.4c2.7-2.7,5-4.5,5-4.5s2.3,1.9,5,4.5c3.9,3.8,6.1,9,6.1,14.4v45H264.6z M306.9,264.3v-45.2
		c0-3,1.2-5.8,3.3-7.9c1.5-1.5,2.7-2.5,2.7-2.5s1.3,1,2.7,2.5c2.1,2.1,3.3,4.9,3.3,7.9v45.2H306.9z M328.1,264.3v-41
		c0-3,1.2-5.8,3.3-7.9c1.5-1.5,2.7-2.5,2.7-2.5s1.3,1,2.7,2.5c2.1,2.1,3.3,4.9,3.3,7.9v41H328.1z"/>
</g>
</svg>
