<?xml version="1.0" encoding="utf-8"?>
<!-- Generator: Adobe Illustrator 22.0.1, SVG Export Plug-In . SVG Version: 6.00 Build 0)  -->
<svg version="1.1" id="Layer_1" xmlns="http://www.w3.org/2000/svg" xmlns:xlink="http://www.w3.org/1999/xlink" x="0px" y="0px"
	 viewBox="0 0 70 70" style="enable-background:new 0 0 70 70;" xml:space="preserve">
<style type="text/css">
	.st0{fill:#99DBCB;}
	.st1{fill:#34B896;}
	.st2{fill:#E6E6E6;}
	.st3{fill:#B3B3B3;}
</style>
<rect x="-0.6" y="-0.6" class="st2" width="71" height="71"/>
<path class="st3" d="M34.9,35.4c7.4,0,13.4-6,13.4-13.4s-6-13.4-13.4-13.4s-13.4,6-13.4,13.4S27.5,35.4,34.9,35.4z"/>
<path class="st3" d="M57.8,46c-0.4-0.9-0.8-1.7-1.3-2.5c-2.7-4-6.8-6.6-11.5-7.2c-0.6-0.1-1.2,0.1-1.7,0.4c-2.5,1.8-5.4,2.7-8.4,2.7
	s-6-0.9-8.4-2.7c-0.5-0.4-1.1-0.5-1.7-0.4c-4.7,0.6-8.9,3.3-11.5,7.2c-0.5,0.8-1,1.6-1.3,2.5c-0.2,0.4-0.1,0.8,0.1,1.1
	c0.5,0.8,1.1,1.6,1.6,2.3c0.8,1.1,1.7,2.1,2.7,3c0.8,0.8,1.8,1.6,2.7,2.3c4.6,3.4,10.2,5.3,15.9,5.3s11.3-1.8,15.9-5.3
	c0.9-0.7,1.9-1.5,2.7-2.3c0.9-0.9,1.9-1.9,2.7-3c0.6-0.8,1.1-1.5,1.6-2.3C57.9,46.8,58,46.4,57.8,46z"/>
</svg>
