<?xml version="1.0" encoding="utf-8"?>
<!-- Generator: Adobe Illustrator 22.0.1, SVG Export Plug-In . SVG Version: 6.00 Build 0)  -->
<svg version="1.1" id="Layer_1" xmlns="http://www.w3.org/2000/svg" xmlns:xlink="http://www.w3.org/1999/xlink" x="0px" y="0px"
	 viewBox="0 0 40 40" style="enable-background:new 0 0 40 40;" xml:space="preserve">
<style type="text/css">
	.st0{fill:#01A67C;}
	.st1{fill:#FFFFFF;}
	.st2{fill:#CCCCCC;}
	.st3{fill:#E0CE2D;}
	.st4{fill:#FFFFFF;stroke:#01A67C;stroke-width:2.2105;stroke-miterlimit:10;}
	.st5{fill:#FFFFFF;stroke:#01A67C;stroke-width:1.3609;stroke-miterlimit:10;}
	.st6{fill:#11B68D;}
</style>
<path class="st1" d="M33.7,27.9c0,0.9-0.6,1.6-1.5,1.8v5.7c0,0.9-0.7,1.6-1.5,1.6H9.3c-0.9,0-1.5-0.7-1.5-1.6v-5.7
	c-0.8-0.2-1.5-0.9-1.5-1.8c0-1,0.5-1.9,1.5-2.1V20c0-0.1,0.1-0.3,0.2-0.4c0.7-0.6,1-1.4,1-2.2c0-0.8-0.4-1.6-1-2.2
	c-0.1-0.1-0.2-0.2-0.2-0.4v-1.1c0-2.8,1.7-5.3,4.5-6.9l6.1-3.4c1.1-0.6,2.3-0.6,3.4,0l6.1,3.4c2.8,1.5,4.5,4.1,4.5,6.9v1.1
	c0,0.1-0.1,0.3-0.2,0.4c-0.7,0.6-1,1.4-1,2.2c0,0.8,0.4,1.6,1,2.2c0.1,0.1,0.2,0.2,0.2,0.4v5.7C33.2,26,33.7,26.9,33.7,27.9z"/>
<g>
	<path class="st6" d="M32.2,25.7V20c0-0.1-0.1-0.3-0.2-0.4c-0.7-0.6-1-1.4-1-2.2c0-0.8,0.4-1.6,1-2.2c0.1-0.1,0.2-0.2,0.2-0.4v-1.1
		c0-2.8-1.7-5.3-4.5-6.9l-6.1-3.4c-1.1-0.6-2.3-0.6-3.4,0l-6.1,3.4c-2.8,1.5-4.5,4.1-4.5,6.9v1.1c0,0.1,0.1,0.3,0.2,0.4
		c0.7,0.6,1,1.4,1,2.2c0,0.8-0.4,1.6-1,2.2c-0.1,0.1-0.2,0.2-0.2,0.4v5.7c-1,0.2-1.5,1.2-1.5,2.1c0,0.9,0.6,1.6,1.5,1.8v5.7
		c0,0.9,0.7,1.6,1.5,1.6h21.3c0.9,0,1.5-0.7,1.5-1.6v-5.7c0.8-0.2,1.5-0.9,1.5-1.8C33.7,26.9,33.2,26,32.2,25.7z M8.8,20.2
		c0.8-0.8,1.2-1.8,1.2-2.8c0-1-0.4-2-1.2-2.8v-0.9c0-2.4,1.5-4.7,3.9-6l6.1-3.4c0.8-0.4,1.6-0.4,2.4,0l6.1,3.4
		c2.5,1.4,3.9,3.6,3.9,6v0.9c-0.8,0.8-1.2,1.8-1.2,2.8c0,1,0.4,2,1.2,2.8v5.4h-2.8v-1.8c0-0.1-0.1-0.3-0.1-0.4L27,22.2
		c-0.2-0.2-0.5-0.2-0.7,0c-0.2,0.2-0.2,0.5,0,0.7l1.2,1.2v1.6h-3.5v-4.6h3.5c0.9,0,1.6-0.7,1.6-1.6v-5.8c0-0.3-0.1-0.6-0.4-0.7v-1.3
		c0-0.5-0.4-1-1-1h-1.1V9.9c0-0.3-0.2-0.5-0.5-0.5c-0.3,0-0.5,0.2-0.5,0.5V13c-0.2,0.2-0.3,0.4-0.3,0.7v2.9l-3.1-1.9
		c0.3-0.4,0.5-0.8,0.5-1.3V9.9c0-1.4-1.1-2.6-2.6-2.6h-0.8c-1.4,0-2.6,1.1-2.6,2.6v3.6c0,0.5,0.2,1,0.5,1.4l-2.1,1.3
		c-1.4,0.9-2.3,2.5-2.3,4.2v5.4H8.8V20.2z M26.9,17.8l-0.7-0.4v-3.5H28v5.7c0,0.3-0.3,0.6-0.6,0.6h-3.5V17l2.5,1.6
		c0.2,0.2,0.5,0.1,0.7-0.1C27.2,18.2,27.1,17.9,26.9,17.8z M26.6,12.8v-1.1h1.1v1.1H26.6z M20,24.2c-1.2,0-2.2,0.6-2.9,1.5h-0.5
		v-6.8c0-0.3-0.2-0.5-0.5-0.5c-0.3,0-0.5,0.2-0.5,0.5v6.8h-1.8v-5.4c0-1.4,0.7-2.6,1.8-3.4l2.4-1.4h1.2V19c0,0.3,0.2,0.5,0.5,0.5
		c0.3,0,0.5-0.2,0.5-0.5v-3.5h1.2l1.5,0.8v9.4h0C22.2,24.8,21.2,24.2,20,24.2z M22.5,27.7c0,1.4-1.1,2.5-2.5,2.5
		c-1.4,0-2.5-1.1-2.5-2.5c0-1.4,1.1-2.5,2.5-2.5C21.4,25.2,22.5,26.3,22.5,27.7z M21.6,11.4v2.1c0,0.6-0.5,1-1,1h-1.8
		c-0.6,0-1-0.5-1-1v-2.1H21.6z M17.7,10.4V9.9c0-0.9,0.7-1.6,1.6-1.6H20c0.9,0,1.6,0.7,1.6,1.6v0.5H17.7z M8.2,28.8
		c-0.5,0-0.9-0.4-0.9-0.9c0-0.6,0.2-1.2,0.9-1.2h8.5c-0.2,0.7-0.2,1.4,0,2.1H8.2z M9.3,36c-0.3,0-0.6-0.2-0.6-0.6v-5.7h0.8l1.7,3
		l0,3.2H9.3z M12.3,36l0-2.8H14l0,2.8H12.3z M26,36l0-2.8h1.7l0,2.8H26z M23.6,32.2c-0.3,0-0.5,0.2-0.5,0.5c0,0.3,0.2,0.5,0.5,0.5
		H25l0,2.8H15l0-2.8h6.2c0.3,0,0.5-0.2,0.5-0.5c0-0.3-0.2-0.5-0.5-0.5h-9.1l-1.3-2.4h6.5c0.6,0.8,1.6,1.4,2.8,1.4s2.1-0.5,2.8-1.4
		h6.5l-1.3,2.4H23.6z M31.2,35.4c0,0.3-0.2,0.6-0.6,0.6h-1.9l0-3.2l1.7-3h0.8V35.4z M31.8,28.8h-8.5c0.3-0.7,0.1-1.4,0.1-2.1h8.4
		c0.7,0,0.9,0.6,0.9,1.2C32.7,28.4,32.3,28.8,31.8,28.8z"/>
	<path class="st6" d="M20.6,27.2h-1.2c-0.3,0-0.5,0.2-0.5,0.5c0,0.3,0.2,0.5,0.5,0.5h1.2c0.3,0,0.5-0.2,0.5-0.5
		C21.1,27.4,20.9,27.2,20.6,27.2z"/>
</g>
</svg>
