<svg xmlns="http://www.w3.org/2000/svg" viewBox="0 0 15.51 23.21"><defs><style>.cls-1{fill:#01a67c;}</style></defs><title>imam-icon</title><g id="Layer_2" data-name="Layer 2"><g id="Layer_1-2" data-name="Layer 1"><path class="cls-1" d="M5.9,11.8A5.9,5.9,0,0,0,0,17.69v5.52H11.8V17.69A5.9,5.9,0,0,0,5.9,11.8Z"/><path class="cls-1" d="M6.5,4.15a10.41,10.41,0,0,0,2.56-3A5.42,5.42,0,0,0,5.71,0,5.52,5.52,0,0,0,.19,5.52a5.26,5.26,0,0,0,.07.89A10.83,10.83,0,0,0,6.5,4.15Z"/><path class="cls-1" d="M7,4.75A11.53,11.53,0,0,1,.44,7.16a5.52,5.52,0,1,0,9.21-5.5A11.22,11.22,0,0,1,7,4.75Z"/><path class="cls-1" d="M15.08,10.49c.23-.43-.1-1.17-.78-1.72S12.69,8,12.36,8.44s0,1.22.74,1.81a2.15,2.15,0,0,0,1.49.55l.34.35V23.21h.58V10.92Z"/><polygon class="cls-1" points="12.38 4.33 12.32 6.28 12.76 4.38 12.38 4.33"/><polygon class="cls-1" points="14.94 3.99 12.79 6.64 15.22 4.25 14.94 3.99"/><polygon class="cls-1" points="14.88 7.04 14.8 6.66 12.94 7.23 14.88 7.04"/></g></g></svg>