<?xml version="1.0" encoding="utf-8"?>
<!-- Generator: Adobe Illustrator 22.0.1, SVG Export Plug-In . SVG Version: 6.00 Build 0)  -->
<svg version="1.1" id="Layer_1" xmlns="http://www.w3.org/2000/svg" xmlns:xlink="http://www.w3.org/1999/xlink" x="0px" y="0px"
	 viewBox="0 0 25 25" style="enable-background:new 0 0 25 25;" xml:space="preserve">
<style type="text/css">
	.st0{fill-rule:evenodd;clip-rule:evenodd;fill:#FFFFFF;}
	.st1{fill:#01A67C;}
	.st2{fill:#FFFFFF;}
	.st3{fill:#CCCCCC;}
	.st4{fill:#E0CE2D;}
	.st5{fill:#FFFFFF;stroke:#01A67C;stroke-width:2.2105;stroke-miterlimit:10;}
	.st6{fill:#FFFFFF;stroke:#01A67C;stroke-width:1.3609;stroke-miterlimit:10;}
	.st7{fill:#11B68D;}
	.st8{fill-rule:evenodd;clip-rule:evenodd;fill:#01A67C;}
</style>
<rect x="-0.1" y="0.1" class="st0" width="25" height="25"/>
<g>
	<path class="st1" d="M11.9,6.4c-3.6,0-6.5,2.9-6.5,6.5c0,3.6,2.9,6.6,6.5,6.6c3.6,0,6.6-2.9,6.6-6.6C18.5,9.3,15.6,6.4,11.9,6.4
		L11.9,6.4z M13.3,16.6c-0.3,0.1-0.6,0.2-0.8,0.3c-0.2,0.1-0.4,0.1-0.7,0.1c-0.4,0-0.7-0.1-1-0.3c-0.2-0.2-0.3-0.5-0.3-0.8
		c0-0.1,0-0.2,0-0.4c0-0.1,0-0.3,0.1-0.4l0.4-1.5c0-0.1,0.1-0.3,0.1-0.4c0-0.1,0-0.2,0-0.4c0-0.2,0-0.3-0.1-0.4
		c-0.1-0.1-0.2-0.1-0.4-0.1c-0.1,0-0.2,0-0.3,0c-0.1,0-0.2,0.1-0.3,0.1l0.1-0.5c0.3-0.1,0.5-0.2,0.8-0.3c0.3-0.1,0.5-0.1,0.7-0.1
		c0.4,0,0.7,0.1,0.9,0.3c0.2,0.2,0.3,0.4,0.3,0.8c0,0.1,0,0.2,0,0.3c0,0.2,0,0.3-0.1,0.4L12.3,15c0,0.1-0.1,0.3-0.1,0.4
		c0,0.2,0,0.3,0,0.3c0,0.2,0,0.3,0.1,0.4c0.1,0.1,0.2,0.1,0.5,0.1c0.1,0,0.2,0,0.3-0.1c0.1,0,0.2-0.1,0.3-0.1L13.3,16.6z M13.2,10.5
		c-0.2,0.2-0.4,0.3-0.7,0.3c-0.3,0-0.5-0.1-0.7-0.3c-0.2-0.2-0.3-0.4-0.3-0.7c0-0.3,0.1-0.5,0.3-0.7C12,9,12.3,8.9,12.5,8.9
		c0.3,0,0.5,0.1,0.7,0.3c0.2,0.2,0.3,0.4,0.3,0.7C13.5,10.1,13.4,10.3,13.2,10.5L13.2,10.5z M13.2,10.5"/>
</g>
</svg>
