<svg xmlns="http://www.w3.org/2000/svg" viewBox="0 0 28.42 28.42"><defs><style>.cls-1{fill:#01a67c;}</style></defs><title>instg-icon</title><g id="Layer_2" data-name="Layer 2"><g id="Layer_1-2" data-name="Layer 1"><path class="cls-1" d="M14.21,28.42A14.21,14.21,0,1,1,28.42,14.21,14.23,14.23,0,0,1,14.21,28.42Zm0-26.69A12.48,12.48,0,1,0,26.69,14.21,12.5,12.5,0,0,0,14.21,1.73Z"/><path class="cls-1" d="M17.93,10a.76.76,0,0,0-.76.76.76.76,0,1,0,1.52,0A.76.76,0,0,0,17.93,10Z"/><path class="cls-1" d="M14.54,11a3.2,3.2,0,1,0,3.2,3.2A3.2,3.2,0,0,0,14.54,11Zm0,5.25a2.05,2.05,0,1,1,2.05-2.05A2.05,2.05,0,0,1,14.54,16.26Z"/><path class="cls-1" d="M17.08,20.71H11.89A3.91,3.91,0,0,1,8,16.8V11.62a3.91,3.91,0,0,1,3.9-3.91h5.19A3.91,3.91,0,0,1,21,11.62V16.8A3.91,3.91,0,0,1,17.08,20.71ZM11.89,8.93a2.7,2.7,0,0,0-2.68,2.69V16.8a2.69,2.69,0,0,0,2.68,2.68h5.19a2.68,2.68,0,0,0,2.68-2.68V11.62a2.69,2.69,0,0,0-2.68-2.69Z"/></g></g></svg>