<?xml version="1.0" encoding="utf-8"?>
<!-- Generator: Adobe Illustrator 22.0.1, SVG Export Plug-In . SVG Version: 6.00 Build 0)  -->
<svg version="1.1" xmlns="http://www.w3.org/2000/svg" xmlns:xlink="http://www.w3.org/1999/xlink" x="0px" y="0px"
	 viewBox="0 0 60 60" style="enable-background:new 0 0 60 60;" xml:space="preserve">
<style type="text/css">
	.st0{display:none;}
	.st1{display:inline;fill:none;}
	.st2{display:inline;}
	.st3{fill:none;stroke:#00A551;stroke-width:0.1;}
	.st4{fill:#E6E6E6;}
	.st5{fill:#F2F2F2;}
	.st6{fill:none;stroke:#000000;}
	.st7{fill:#006F7B;}
	.st8{fill:#01A67C;}
	.st9{fill:#20A890;}
	.st10{fill:#333333;}
	.st11{fill:#FFFFFF;}
	.st12{fill:#CCCCCC;}
	.st13{fill:#00A99D;}
	.st14{fill:#B3B3B3;}
	.st15{fill:#999999;}
	.st16{fill:#666666;}
	.st17{fill:none;stroke:#F2F2F2;stroke-width:2;stroke-miterlimit:10;}
	.st18{fill:none;stroke:#F2F2F2;stroke-width:3;stroke-linecap:round;stroke-linejoin:round;stroke-miterlimit:10;}
	.st19{fill:none;stroke:#999999;stroke-width:2.9951;stroke-miterlimit:10;}
	.st20{fill:none;stroke:#F2F2F2;stroke-width:3.3333;stroke-miterlimit:10;}
	.st21{fill:none;stroke:#F2F2F2;stroke-width:5;stroke-linecap:round;stroke-linejoin:round;stroke-miterlimit:10;}
	.st22{fill:none;stroke:#F2F2F2;stroke-miterlimit:10;}
	.st23{fill:#4D4D4D;}
	.st24{fill:none;stroke:#4D4D4D;stroke-width:2;stroke-miterlimit:10;}
	.st25{fill:none;stroke:#4D4D4D;stroke-width:1.2;stroke-miterlimit:10;}
	.st26{fill:none;stroke:#CCCCCC;stroke-width:4.7863;stroke-linecap:round;stroke-linejoin:round;stroke-miterlimit:10;}
	.st27{fill:none;stroke:#E6E6E6;stroke-width:7.4365;stroke-linecap:round;stroke-linejoin:round;stroke-miterlimit:10;}
	.st28{fill:#808080;}
	.st29{fill:none;stroke:#B3B3B3;stroke-width:1.5889;stroke-miterlimit:10;}
	.st30{fill:#F7F7F7;}
	.st31{fill:url(#);}
	.st32{fill:url(#SVGID_3_);}
	.st33{fill:url(#SVGID_4_);}
	.st34{fill:url(#SVGID_5_);}
	.st35{fill:url(#SVGID_6_);}
	.st36{fill:url(#SVGID_7_);}
	.st37{fill:url(#SVGID_8_);}
	.st38{fill:url(#SVGID_9_);}
	.st39{fill:url(#SVGID_10_);}
	.st40{fill:url(#SVGID_11_);}
	.st41{fill:url(#SVGID_12_);}
	.st42{fill:url(#SVGID_13_);}
	.st43{opacity:0.32;}
	.st44{fill:url(#SVGID_14_);}
	.st45{fill:url(#SVGID_15_);}
	.st46{opacity:0.25;}
	.st47{fill:url(#SVGID_16_);}
	.st48{fill:url(#SVGID_17_);}
	.st49{fill:url(#SVGID_18_);}
	.st50{fill:url(#SVGID_19_);}
	.st51{fill:url(#SVGID_20_);}
	.st52{fill:url(#SVGID_21_);}
	.st53{fill:url(#SVGID_22_);}
</style>
<g id="Layer_1" class="st0">
</g>
<g id="Layer_2">
	<radialGradient id="SVGID_2_" cx="17.5001" cy="11.8399" r="51.4606" gradientUnits="userSpaceOnUse">
		<stop  offset="0.1636" style="stop-color:#F8A63E"/>
		<stop  offset="0.6182" style="stop-color:#A55400"/>
		<stop  offset="1" style="stop-color:#630000"/>
	</radialGradient>
	<polygon style="fill:url(#SVGID_2_);" points="14.8,16.3 49.2,40.6 52.3,46.4 9.8,16.6 	"/>
	<radialGradient id="SVGID_3_" cx="20.0059" cy="26.186" r="38.0961" gradientUnits="userSpaceOnUse">
		<stop  offset="0.1636" style="stop-color:#F8A63E"/>
		<stop  offset="0.6182" style="stop-color:#A55400"/>
		<stop  offset="1" style="stop-color:#630000"/>
	</radialGradient>
	<polygon class="st32" points="50.3,16.4 52.9,18.1 10.8,44.7 16.4,38.3 	"/>
	<radialGradient id="SVGID_4_" cx="17.4977" cy="11.8408" r="51.462" gradientUnits="userSpaceOnUse">
		<stop  offset="0.1636" style="stop-color:#F8A63E"/>
		<stop  offset="0.6182" style="stop-color:#A55400"/>
		<stop  offset="1" style="stop-color:#630000"/>
	</radialGradient>
	<polygon class="st33" points="31.9,28.3 31.3,31.8 28.7,30.4 	"/>
	<radialGradient id="SVGID_5_" cx="22.7718" cy="11.2346" r="33.8499" gradientUnits="userSpaceOnUse">
		<stop  offset="0.1636" style="stop-color:#F8A63E"/>
		<stop  offset="0.6182" style="stop-color:#A55400"/>
		<stop  offset="1" style="stop-color:#630000"/>
	</radialGradient>
	<polygon class="st34" points="11.6,45.7 10.8,44.7 52.9,18.1 53.7,19.4 	"/>
	<radialGradient id="SVGID_6_" cx="45.8899" cy="22.5777" r="38.3024" gradientUnits="userSpaceOnUse">
		<stop  offset="0.1636" style="stop-color:#F8A63E"/>
		<stop  offset="0.6182" style="stop-color:#A55400"/>
		<stop  offset="1" style="stop-color:#630000"/>
	</radialGradient>
	<polygon class="st35" points="52.3,46.4 51.5,47.5 9,17.8 9.8,16.6 	"/>
	<g>
		
			<radialGradient id="SVGID_7_" cx="-805.8186" cy="-1037.7251" r="5.0601" fx="-803.2606" fy="-1037.8921" gradientTransform="matrix(1.725 1.1784 -0.258 0.3777 1145.8158 1365.1207)" gradientUnits="userSpaceOnUse">
			<stop  offset="0.1636" style="stop-color:#383032"/>
			<stop  offset="0.2584" style="stop-color:#5E5859"/>
			<stop  offset="0.3945" style="stop-color:#8F8A8B"/>
			<stop  offset="0.529" style="stop-color:#B7B4B5"/>
			<stop  offset="0.659" style="stop-color:#D6D5D5"/>
			<stop  offset="0.7834" style="stop-color:#EDECEC"/>
			<stop  offset="0.8997" style="stop-color:#FAFAFA"/>
			<stop  offset="1" style="stop-color:#FFFFFF"/>
		</radialGradient>
		<path class="st36" d="M32.2,29.6c-0.7,1.1-5.2-0.8-10-4.1c-4.8-3.3-8.1-6.8-7.4-7.9c0.7-1.1,5.2,0.8,10,4.1
			C29.6,25,33,28.5,32.2,29.6z"/>
	</g>
	<g>
		
			<radialGradient id="SVGID_8_" cx="-2877.8474" cy="5426.8745" r="5.0601" fx="-2875.2893" fy="5426.7075" gradientTransform="matrix(-1.725 1.1784 0.258 0.3777 -6325.439 1365.1207)" gradientUnits="userSpaceOnUse">
			<stop  offset="0.1636" style="stop-color:#383032"/>
			<stop  offset="0.2584" style="stop-color:#5E5859"/>
			<stop  offset="0.3945" style="stop-color:#8F8A8B"/>
			<stop  offset="0.529" style="stop-color:#B7B4B5"/>
			<stop  offset="0.659" style="stop-color:#D6D5D5"/>
			<stop  offset="0.7834" style="stop-color:#EDECEC"/>
			<stop  offset="0.8997" style="stop-color:#FAFAFA"/>
			<stop  offset="1" style="stop-color:#FFFFFF"/>
		</radialGradient>
		<path class="st37" d="M30.3,29.6c0.7,1.1,5.2-0.8,10-4.1c4.8-3.3,8.1-6.8,7.4-7.9c-0.7-1.1-5.2,0.8-10,4.1
			C32.9,25,29.5,28.5,30.3,29.6z"/>
	</g>
	<radialGradient id="SVGID_9_" cx="31.3275" cy="5.2713" r="23.1819" gradientUnits="userSpaceOnUse">
		<stop  offset="0.1879" style="stop-color:#FFFFFF"/>
		<stop  offset="0.4788" style="stop-color:#E2E3E5"/>
		<stop  offset="0.7333" style="stop-color:#B5B8BA"/>
		<stop  offset="1" style="stop-color:#797C7F"/>
	</radialGradient>
	<path class="st38" d="M16.2,15.6c0,0,3,0.3,9.2,4.6c6.2,4.3,6,5.7,6,5.7s0.4-1.1,3.1-3.2c2.7-2,12.1-6.3,12.1-6.3l2.2,3.1
		c0,0-9.5,4.4-12.4,6.5c-2.9,2-3.8,3.6-3.8,3.6L30,29.3c0,0,0.5-0.6-4.6-4c-5.1-3.3-11.2-6.7-11.2-6.7L16.2,15.6z"/>
	<radialGradient id="SVGID_10_" cx="20.59" cy="10.0672" r="19.9599" gradientUnits="userSpaceOnUse">
		<stop  offset="0.1879" style="stop-color:#FFFFFF"/>
		<stop  offset="0.6242" style="stop-color:#E2E3E5"/>
		<stop  offset="1" style="stop-color:#B5B8BA"/>
	</radialGradient>
	<path class="st39" d="M16.2,15.6l4.4,0.2c0,0,3.7,1.8,7.3,4c3.5,2.3,3.9,3.3,3.9,3.3l-0.4,2.7c0,0,0.7-0.6-5.3-4.6
		C22.1,18.5,16.2,15.6,16.2,15.6z"/>
	<radialGradient id="SVGID_11_" cx="30.3117" cy="14.6484" r="15.5558" gradientUnits="userSpaceOnUse">
		<stop  offset="0.1879" style="stop-color:#FFFFFF"/>
		<stop  offset="0.6242" style="stop-color:#E2E3E5"/>
		<stop  offset="1" style="stop-color:#B5B8BA"/>
	</radialGradient>
	<path class="st40" d="M20.1,14.2c1.5-0.1,1.5-0.1,2.6-0.2c1,1.6,3,3,6.1,5.2c3.1,2.2,3,3.9,3,3.9l-0.4,2.7c0,0,0.4-2.1-1.7-3.8
		C26.4,19.4,21,16.9,20.1,14.2z"/>
	<radialGradient id="SVGID_12_" cx="41.4822" cy="12.3365" r="15.3428" gradientUnits="userSpaceOnUse">
		<stop  offset="0.1879" style="stop-color:#FFFFFF"/>
		<stop  offset="0.6242" style="stop-color:#E2E3E5"/>
		<stop  offset="1" style="stop-color:#B5B8BA"/>
	</radialGradient>
	<path class="st41" d="M31.4,25.9l0.4-2.7c0,0,0.5-1.3,2.2-2.5c1.7-1.2,10.5-5.4,10.5-5.4l2.2,1.1c0,0-9.3,4.7-11.7,6.2
		C32.7,23.9,31.4,25.9,31.4,25.9z"/>
	<g class="st43">
		<radialGradient id="SVGID_13_" cx="20.6344" cy="8.4704" r="17.0148" gradientUnits="userSpaceOnUse">
			<stop  offset="0.1879" style="stop-color:#FFFFFF"/>
			<stop  offset="0.6242" style="stop-color:#E2E3E5"/>
			<stop  offset="1" style="stop-color:#B5B8BA"/>
		</radialGradient>
		<path class="st42" d="M15.6,16.6c2,0.9,8.8,4.8,8.8,4.8s-1.1-0.7-3-1.8c-1.7-1-4.9-2.7-5.7-3.1L15.6,16.6z"/>
	</g>
	<radialGradient id="SVGID_14_" cx="31.2374" cy="30.8386" r="1.7171" gradientUnits="userSpaceOnUse">
		<stop  offset="0.1636" style="stop-color:#F8A63E"/>
		<stop  offset="0.6182" style="stop-color:#A55400"/>
		<stop  offset="1" style="stop-color:#630000"/>
	</radialGradient>
	<path class="st44" d="M32,32.5c0,0.4-0.3,0.7-0.7,0.7c-0.4,0-0.7-0.3-0.7-0.7c0-0.4,0.3-0.7,0.7-0.7C31.7,31.9,32,32.2,32,32.5z"/>
	<g class="st46">
		<radialGradient id="SVGID_15_" cx="45.5403" cy="10.3686" r="26.4397" gradientUnits="userSpaceOnUse">
			<stop  offset="0.1879" style="stop-color:#FFFFFF"/>
			<stop  offset="0.4788" style="stop-color:#E2E3E5"/>
			<stop  offset="0.7333" style="stop-color:#B5B8BA"/>
			<stop  offset="1" style="stop-color:#797C7F"/>
		</radialGradient>
		<path class="st45" d="M47.3,17.3c0,0-7.7,3.7-8.3,4.1c-0.6,0.3-1.5,0.9-1.5,0.9s8.8-4.4,9.9-4.9L47.3,17.3z"/>
	</g>
	<g>
		
			<radialGradient id="SVGID_16_" cx="1098.874" cy="19983.5879" r="12.981" gradientTransform="matrix(0.8264 0.5631 -1.900000e-02 2.790000e-02 -503.5744 -1149.2229)" gradientUnits="userSpaceOnUse">
			<stop  offset="0" style="stop-color:#FFFFFF"/>
			<stop  offset="0.1515" style="stop-color:#C4C4C4"/>
			<stop  offset="0.3213" style="stop-color:#898989"/>
			<stop  offset="0.4854" style="stop-color:#585858"/>
			<stop  offset="0.6393" style="stop-color:#323232"/>
			<stop  offset="0.7809" style="stop-color:#161616"/>
			<stop  offset="0.9055" style="stop-color:#060606"/>
			<stop  offset="1" style="stop-color:#000000"/>
		</radialGradient>
		<path class="st47" d="M35.6,34.4c-0.1,0.2-5-2.9-11-6.9c-5.9-4-10.6-7.5-10.5-7.7c0.1-0.2,5,2.9,11,6.9
			C31,30.8,35.7,34.2,35.6,34.4z"/>
		
			<radialGradient id="SVGID_17_" cx="1096.259" cy="19819.3926" r="4.1131" gradientTransform="matrix(0.8264 0.5631 -1.900000e-02 2.790000e-02 -503.5744 -1149.2229)" gradientUnits="userSpaceOnUse">
			<stop  offset="0" style="stop-color:#FFFFFF"/>
			<stop  offset="0.1515" style="stop-color:#C4C4C4"/>
			<stop  offset="0.3213" style="stop-color:#898989"/>
			<stop  offset="0.4854" style="stop-color:#585858"/>
			<stop  offset="0.6393" style="stop-color:#323232"/>
			<stop  offset="0.7809" style="stop-color:#161616"/>
			<stop  offset="0.9055" style="stop-color:#060606"/>
			<stop  offset="1" style="stop-color:#000000"/>
		</radialGradient>
		<path class="st48" d="M29.2,23.4c0,0.1-1.6-0.9-3.5-2.2c-1.9-1.3-3.4-2.4-3.3-2.4c0-0.1,1.6,0.9,3.5,2.2
			C27.8,22.2,29.2,23.3,29.2,23.4z"/>
		
			<radialGradient id="SVGID_18_" cx="1118.2285" cy="19992.3164" r="10.9774" gradientTransform="matrix(0.8264 0.5631 -1.900000e-02 2.790000e-02 -503.5744 -1149.2229)" gradientUnits="userSpaceOnUse">
			<stop  offset="0" style="stop-color:#FFFFFF"/>
			<stop  offset="0.1515" style="stop-color:#C4C4C4"/>
			<stop  offset="0.3213" style="stop-color:#898989"/>
			<stop  offset="0.4854" style="stop-color:#585858"/>
			<stop  offset="0.6393" style="stop-color:#323232"/>
			<stop  offset="0.7809" style="stop-color:#161616"/>
			<stop  offset="0.9055" style="stop-color:#060606"/>
			<stop  offset="1" style="stop-color:#000000"/>
		</radialGradient>
		<path class="st49" d="M49.7,44.4c-0.1,0.2-4.3-2.5-9.3-5.9c-5-3.4-9-6.3-8.9-6.5c0.1-0.2,4.3,2.5,9.3,5.9
			C45.9,41.3,49.9,44.2,49.7,44.4z"/>
		
			<radialGradient id="SVGID_19_" cx="-1859.7024" cy="107639.2344" r="12.989" gradientTransform="matrix(0.8443 -0.5359 1.810000e-02 2.850000e-02 -354.6795 -4027.7241)" gradientUnits="userSpaceOnUse">
			<stop  offset="0" style="stop-color:#FFFFFF"/>
			<stop  offset="0.1515" style="stop-color:#C4C4C4"/>
			<stop  offset="0.3213" style="stop-color:#898989"/>
			<stop  offset="0.4854" style="stop-color:#585858"/>
			<stop  offset="0.6393" style="stop-color:#323232"/>
			<stop  offset="0.7809" style="stop-color:#161616"/>
			<stop  offset="0.9055" style="stop-color:#060606"/>
			<stop  offset="1" style="stop-color:#000000"/>
		</radialGradient>
		<path class="st50" d="M34.4,29.7c0.1,0.2-4.7,3.5-10.7,7.3c-6,3.8-11.1,6.8-11.2,6.6c-0.1-0.2,4.7-3.5,10.7-7.3
			C29.3,32.4,34.3,29.4,34.4,29.7z"/>
		
			<radialGradient id="SVGID_20_" cx="-1838.1462" cy="107642.7969" r="10.6198" gradientTransform="matrix(0.8443 -0.5359 1.810000e-02 2.850000e-02 -354.6795 -4027.7241)" gradientUnits="userSpaceOnUse">
			<stop  offset="0" style="stop-color:#FFFFFF"/>
			<stop  offset="0.1515" style="stop-color:#C4C4C4"/>
			<stop  offset="0.3213" style="stop-color:#898989"/>
			<stop  offset="0.4854" style="stop-color:#585858"/>
			<stop  offset="0.6393" style="stop-color:#323232"/>
			<stop  offset="0.7809" style="stop-color:#161616"/>
			<stop  offset="0.9055" style="stop-color:#060606"/>
			<stop  offset="1" style="stop-color:#000000"/>
		</radialGradient>
		<path class="st51" d="M50.7,19.5c0.1,0.2-3.8,2.9-8.8,6c-5,3.1-9.1,5.6-9.2,5.4c-0.1-0.2,3.8-2.9,8.8-6
			C46.5,21.7,50.6,19.3,50.7,19.5z"/>
		
			<radialGradient id="SVGID_21_" cx="-1604.9821" cy="105788.7813" r="6.9668" gradientTransform="matrix(0.8764 -0.4815 1.630000e-02 2.960000e-02 -277.7847 -3884.3809)" gradientUnits="userSpaceOnUse">
			<stop  offset="0" style="stop-color:#FFFFFF"/>
			<stop  offset="0.1515" style="stop-color:#C4C4C4"/>
			<stop  offset="0.3213" style="stop-color:#898989"/>
			<stop  offset="0.4854" style="stop-color:#585858"/>
			<stop  offset="0.6393" style="stop-color:#323232"/>
			<stop  offset="0.7809" style="stop-color:#161616"/>
			<stop  offset="0.9055" style="stop-color:#060606"/>
			<stop  offset="1" style="stop-color:#000000"/>
		</radialGradient>
		<path class="st52" d="M46.1,16.4c0.1,0.1-2.6,1.7-6,3.6c-3.4,1.9-6.2,3.3-6.2,3.1c-0.1-0.1,2.6-1.7,6-3.6
			C43.2,17.7,46,16.3,46.1,16.4z"/>
	</g>
</g>
</svg>
