<?xml version="1.0" encoding="utf-8"?>
<!-- Generator: Adobe Illustrator 22.0.1, SVG Export Plug-In . SVG Version: 6.00 Build 0)  -->
<svg version="1.1" id="Layer_1" xmlns="http://www.w3.org/2000/svg" xmlns:xlink="http://www.w3.org/1999/xlink" x="0px" y="0px"
	 viewBox="0 0 40 40" style="enable-background:new 0 0 40 40;" xml:space="preserve">
<style type="text/css">
	.st0{fill:#01A67C;}
	.st1{fill:#FFFFFF;}
	.st2{fill:#CCCCCC;}
</style>
<rect x="15" y="12" class="st1" width="15" height="18"/>
<g>
	<g>
		<path class="st0" d="M31.3,9.2h-0.5l-0.2-1.3l-0.2,1.3h-1.5l-0.2-1.3l-0.2,1.3h-1.5l-0.2-1.3l-0.2,1.3H25l-0.2-1.3l-0.2,1.3h-1.5
			l-0.2-1.3l-0.2,1.3h-1.5l-0.2-1.3l-0.2,1.3h-1.5L19,7.8l-0.2,1.3h-1.5L17,7.8l-0.2,1.3h-1.5l-0.2-1.3l-0.2,1.3h-1.5l-0.2-1.3
			L13,9.2h-0.5v23.6h0.4l0.3,1.6l0.3-1.6h1.4l0.3,1.6l0.3-1.6h1.4l0.3,1.6l0.3-1.6h1.4l0.3,1.6l0.3-1.6h1.4l0.3,1.6l0.3-1.6h1.4
			l0.3,1.6l0.3-1.6h1.4l0.3,1.6l0.3-1.6h1.4l0.3,1.6l0.3-1.6h1.4l0.3,1.6l0.3-1.6h1.4l0.3,1.6l0.3-1.6h0.4V9.2z M27.1,29.4H16.7V18
			c0-1.6,1-3,2.5-3.5c0.5-0.2,1-0.5,1.4-0.9l1.3-1.1l1.3,1.1c0.4,0.4,0.9,0.7,1.4,0.9c0.7,0.3,1.4,0.8,1.8,1.4
			c0.4,0.6,0.7,1.4,0.7,2.2V29.4z"/>
	</g>
	<g>
		<path class="st0" d="M24.5,20.1c-0.7-0.7-1.6-1.1-2.6-1.1s-1.9,0.4-2.6,1.1c-0.7,0.7-1.1,1.6-1.1,2.6s0.4,1.9,1.1,2.6
			c0.7,0.7,1.6,1.1,2.6,1.1s1.9-0.4,2.6-1.1c0.7-0.7,1.1-1.6,1.1-2.6S25.2,20.8,24.5,20.1L24.5,20.1z M21.9,19.3
			c0.9,0,1.7,0.4,2.3,1l-0.2,0.2c-0.6-0.6-1.3-0.9-2.1-0.9V19.3z M21.8,19.3v0.3c-0.8,0-1.5,0.3-2.1,0.9l-0.2-0.2
			C20.1,19.7,20.9,19.3,21.8,19.3z M19.4,20.4l0.2,0.2c-0.6,0.6-0.9,1.3-0.9,2.1h-0.3C18.4,21.8,18.8,21,19.4,20.4z M18.4,22.8h0.3
			c0,0.8,0.3,1.5,0.9,2.1l-0.2,0.2C18.8,24.5,18.4,23.7,18.4,22.8z M21.8,26.2c-0.9,0-1.7-0.4-2.3-1l0.2-0.2
			c0.6,0.6,1.3,0.9,2.1,0.9V26.2z M19.8,24.8c-0.5-0.5-0.8-1.3-0.8-2.1c0-0.8,0.3-1.5,0.8-2.1c0.5-0.5,1.3-0.8,2.1-0.8
			s1.5,0.3,2.1,0.8c0.5,0.5,0.8,1.3,0.8,2.1c0,0.8-0.3,1.5-0.8,2.1c-0.5,0.5-1.3,0.8-2.1,0.8S20.4,25.3,19.8,24.8z M21.9,26.2v-0.3
			c0.8,0,1.5-0.3,2.1-0.9l0.2,0.2C23.6,25.8,22.8,26.2,21.9,26.2z M24.4,25.1l-0.2-0.2c0.6-0.6,0.9-1.3,0.9-2.1h0.3
			C25.3,23.7,25,24.5,24.4,25.1z M25.1,22.7c0-0.8-0.3-1.5-0.9-2.1l0.2-0.2c0.6,0.6,0.9,1.5,1,2.3H25.1z"/>
	</g>
	<g>
		<path class="st0" d="M20.8,25c0.5-0.7,0.9-1.4,1.3-2.1c0.4-0.7,0.7-1.5,0.9-2.3c-0.5,0.7-0.9,1.4-1.3,2.1
			C21.3,23.4,21,24.1,20.8,25z"/>
	</g>
</g>
</svg>
