<svg xmlns="http://www.w3.org/2000/svg" viewBox="0 0 121.43 98.89"><defs><style>.cls-1{fill:#006f7b;}.cls-2{fill:#01a67c;}.cls-3{fill:#20a890;}.cls-4{fill:#333;}.cls-5{fill:#fff;}</style></defs><title>logo2</title><g id="Layer_2" data-name="Layer 2"><g id="Layer_1-2" data-name="Layer 1"><path class="cls-1" d="M0,95.24l1.59-1.9a2.85,2.85,0,0,0,2.29,1.35c1.15,0,1.75-.68,1.75-2V86.77H1.29V84.48H8.47v8C8.47,95.54,6.93,97,4,97A4.94,4.94,0,0,1,0,95.24Z"/><path class="cls-1" d="M11.19,91.39V84.48h2.86v6.81c0,2.35,1,3.32,2.75,3.32s2.75-1,2.75-3.32V84.48h2.82v6.91C22.37,95,20.29,97,16.78,97S11.19,95,11.19,91.39Z"/><path class="cls-1" d="M24.23,95.61l1-2.15a7.24,7.24,0,0,0,4.07,1.29c1.7,0,2.39-.57,2.39-1.33,0-2.31-7.19-.72-7.19-5.31,0-2.1,1.7-3.84,5.21-3.84A8.34,8.34,0,0,1,34,85.36l-.89,2.17a7,7,0,0,0-3.42-1c-1.69,0-2.35.64-2.35,1.41,0,2.28,7.19.71,7.19,5.24,0,2.07-1.72,3.83-5.24,3.83A8.77,8.77,0,0,1,24.23,95.61Z"/><path class="cls-1" d="M38.84,86.81h-4V84.48H45.65v2.33H41.7v10H38.84Z"/><path class="cls-2" d="M46.23,90.65c0-3.72,2.86-6.38,6.71-6.38A6.39,6.39,0,0,1,58,86.45l-1.84,1.7a4,4,0,0,0-3.1-1.45,4,4,0,1,0,0,7.91,3.94,3.94,0,0,0,3.1-1.47L58,94.83A6.36,6.36,0,0,1,52.92,97,6.34,6.34,0,0,1,46.23,90.65Z"/><path class="cls-2" d="M67.81,96.83l-2.38-3.44H62.8v3.44H59.94V84.48h5.35c3.3,0,5.36,1.71,5.36,4.48a4,4,0,0,1-2.54,3.9l2.77,4Zm-2.68-10H62.8v4.3h2.33c1.75,0,2.63-.81,2.63-2.15S66.88,86.81,65.13,86.81Z"/><path class="cls-2" d="M72.13,90.65c0-3.67,2.86-6.38,6.76-6.38s6.76,2.7,6.76,6.38S82.77,97,78.89,97,72.13,94.32,72.13,90.65Zm10.63,0a3.87,3.87,0,1,0-3.87,4A3.77,3.77,0,0,0,82.76,90.65Z"/><path class="cls-2" d="M92.3,92l-1.66,1.73v3.12H87.8V84.48h2.84v5.77l5.47-5.77h3.18L94.17,90l5.42,6.85H96.25Z"/><path class="cls-2" d="M100,95.24a1.71,1.71,0,0,1,3.42,0,1.71,1.71,0,1,1-3.42,0Z"/><path class="cls-2" d="M104.35,94.08a3,3,0,1,1,3,2.83A2.83,2.83,0,0,1,104.35,94.08Zm4.42,0a1.41,1.41,0,1,0-1.4,1.52A1.38,1.38,0,0,0,108.77,94.08Z"/><path class="cls-2" d="M114.86,91.25v1.47l-.36,0A1.35,1.35,0,0,0,113,94.23v2.6h-1.59v-5.5H113v.73A2.22,2.22,0,0,1,114.86,91.25Z"/><path class="cls-2" d="M121.43,91.33v4.58c0,2-1.1,3-3.09,3a4.5,4.5,0,0,1-2.69-.75l.63-1.15a3.28,3.28,0,0,0,1.94.63c1.12,0,1.62-.52,1.62-1.51v-.23a2.28,2.28,0,0,1-1.74.68,2.66,2.66,0,1,1,0-5.31,2.22,2.22,0,0,1,1.82.79v-.71Zm-1.57,2.58a1.45,1.45,0,0,0-2.9,0,1.45,1.45,0,0,0,2.9,0Z"/><path class="cls-3" d="M61.12,29.83h-.24v-.89a.93.93,0,0,1-.66-.47.91.91,0,0,1,.05-.94.82.82,0,0,1,.8-.36.89.89,0,0,0-.64.46.79.79,0,0,0,0,.72.77.77,0,0,0,.6.41.86.86,0,0,0,.74-.27.84.84,0,0,1-.65.46Z"/><circle class="cls-3" cx="61" cy="39.86" r="1.51"/><path class="cls-3" d="M63.05,33.45l3.14,2.9v7.24l-2.41,1H61.25l2-2.8a3,3,0,1,0-4.42,0l2,2.8H58l-2.18-1V36.35l3.14-2.9h.25V31.64a1.81,1.81,0,1,1,3.62,0v1.81Z"/><path class="cls-2" d="M74.13,30.32,73,23.67l-6.66-1-5.48-3.93-5.43,4-6.65,1.1-1,6.66L43.87,36l4,5.43L49,48.05l6.66,1L61.11,53l5.42-4,6.66-1.1,1-6.66,3.93-5.48ZM61,46.64A10.79,10.79,0,1,1,71.79,35.86,10.77,10.77,0,0,1,61,46.64Z"/><polygon class="cls-4" points="61 35.86 61 35.86 61 35.86 61 35.86"/><polygon class="cls-4" points="61 35.86 61 35.86 61 35.86 61 35.86"/><path class="cls-1" d="M91.58,46.94,80.83,35.73,91.44,24.37a1.49,1.49,0,0,0-1.06-2.5l-15.54-.32L74.32,6A1.49,1.49,0,0,0,71.8,5L60.59,15.75,49.23,5.14a1.48,1.48,0,0,0-1-.41,1.5,1.5,0,0,0-1.52,1.46L46.4,21.73l-15.53.52a1.5,1.5,0,0,0-1,2.53L40.6,36,30,47.35a1.49,1.49,0,0,0,1.06,2.5l15.54.32.52,15.54a1.49,1.49,0,0,0,2.52,1L60.84,56,72.2,66.58a1.48,1.48,0,0,0,1,.41,1.5,1.5,0,0,0,1.52-1.46L75,50l15.53-.53a1.44,1.44,0,0,0,1-.41A1.48,1.48,0,0,0,91.58,46.94Zm-16.53,2,.15-7.16-1.11,7.31-7.3,1.21L74,50,72,62.69l-10.4-7.47,5.16-4.95-6,4.39-6-4.31,5.22,4.88-10.3,7.6L47.67,50.2l7.16.15-7.32-1.11-1.2-7.3.24,7.15L33.89,47.18l7.46-10.41,5,5.17-4.39-6,4.31-6L41.34,35.2l-7.6-10.31,12.64-2.08L46.23,30l1.11-7.31,7.3-1.21-7.16.24L49.4,9l10.4,7.46-5.16,5,6-4.39,6,4.31-5.23-4.88,10.31-7.6,2.08,12.63-7.16-.15,7.32,1.11,1.2,7.3-.24-7.15,12.66,1.91L80.08,35l-5-5.17,4.39,6-4.31,6,4.89-5.23,7.6,10.31Z"/><path class="cls-2" d="M47.59,4.08A2,2,0,1,0,44.93,3,2,2,0,0,0,47.59,4.08Z"/><path class="cls-2" d="M74,3.91a2,2,0,1,0-1.12-2.64A2,2,0,0,0,74,3.91Z"/><path class="cls-2" d="M95.44,23.53a2,2,0,1,0-2.66-1.08A2,2,0,0,0,95.44,23.53Z"/><path class="cls-2" d="M95.59,47.74a2,2,0,1,0,1.12,2.64A2,2,0,0,0,95.59,47.74Z"/><path class="cls-2" d="M74.41,67.64a2,2,0,1,0,2.65,1.08A2,2,0,0,0,74.41,67.64Z"/><path class="cls-2" d="M48,67.81a2,2,0,1,0,1.11,2.64A2,2,0,0,0,48,67.81Z"/><path class="cls-2" d="M26.56,48.19a2,2,0,1,0,2.66,1.08A2,2,0,0,0,26.56,48.19Z"/><path class="cls-2" d="M26.4,24a2,2,0,1,0-1.11-2.64A2,2,0,0,0,26.4,24Z"/><path class="cls-5" d="M61.12,29.83h-.24v-.89a.93.93,0,0,1-.66-.47.91.91,0,0,1,.05-.94.82.82,0,0,1,.8-.36.89.89,0,0,0-.64.46.79.79,0,0,0,0,.72.77.77,0,0,0,.6.41.86.86,0,0,0,.74-.27.84.84,0,0,1-.65.46Z"/><circle class="cls-5" cx="61" cy="39.86" r="1.51"/><path class="cls-5" d="M66.19,36.35v7.24l-2.41,1H61.25l2-2.8a3,3,0,1,0-4.42,0l2,2.8H58l-2.18-1V36.35l3.14-2.9h.25V31.64a1.81,1.81,0,1,1,3.62,0v1.81h.24Z"/><circle class="cls-2" cx="61" cy="39.86" r="1.51"/><path class="cls-2" d="M66.19,36.35v7.24l-2.41,1H61.25l2-2.8a3,3,0,1,0-4.42,0l2,2.8H58l-2.18-1V36.35l3.14-2.9h.25V31.64a1.81,1.81,0,1,1,3.62,0v1.81h.24Z"/><path class="cls-2" d="M61.77,28.49a.84.84,0,0,1-.65.46v.88h-.24v-.89a.93.93,0,0,1-.66-.47.91.91,0,0,1,.05-.94.82.82,0,0,1,.8-.36.89.89,0,0,0-.64.46.79.79,0,0,0,0,.72.77.77,0,0,0,.6.41A.86.86,0,0,0,61.77,28.49Z"/></g></g></svg>