<svg xmlns="http://www.w3.org/2000/svg" viewBox="0 0 132.58 20.69"><defs><style>.cls-1{fill:#006f7b;}.cls-2{fill:#01a67c;}.cls-3{fill:#20a890;}.cls-4{fill:#333;}.cls-5{fill:#fff;}</style></defs><title>Asset 1</title><g id="Layer_2" data-name="Layer 2"><g id="Layer_1-2" data-name="Layer 1"><path class="cls-1" d="M24.67,13.91l1.41-1.69a2.54,2.54,0,0,0,2,1.21c1,0,1.56-.61,1.56-1.82V6.39H25.82v-2H32.2v7.12c0,2.71-1.36,4-4,4A4.4,4.4,0,0,1,24.67,13.91Z"/><path class="cls-1" d="M34.61,10.5V4.35h2.54V10.4c0,2.09.91,2.95,2.45,2.95s2.45-.86,2.45-2.95V4.35h2.51V10.5c0,3.23-1.85,5-5,5S34.61,13.73,34.61,10.5Z"/><path class="cls-1" d="M46.2,14.24l.87-1.91a6.39,6.39,0,0,0,3.62,1.15c1.5,0,2.11-.51,2.11-1.18,0-2.05-6.38-.64-6.38-4.72,0-1.87,1.51-3.42,4.63-3.42a7.39,7.39,0,0,1,3.81,1l-.79,1.93a6.2,6.2,0,0,0-3-.86c-1.5,0-2.08.57-2.08,1.25,0,2,6.38.63,6.38,4.66,0,1.84-1.52,3.4-4.66,3.4A7.77,7.77,0,0,1,46.2,14.24Z"/><path class="cls-1" d="M59.19,6.42H55.67V4.35h9.57V6.42H61.73v8.91H59.19Z"/><path class="cls-2" d="M65.76,9.84A6,6,0,0,1,76.23,6.11L74.6,7.61a3.55,3.55,0,0,0-2.76-1.28,3.37,3.37,0,0,0-3.51,3.51,3.37,3.37,0,0,0,3.51,3.51,3.51,3.51,0,0,0,2.76-1.3l1.63,1.5A6,6,0,0,1,65.76,9.84Z"/><path class="cls-2" d="M84.93,15.33l-2.11-3.06H80.48v3.06H77.94v-11h4.75c2.93,0,4.77,1.52,4.77,4A3.57,3.57,0,0,1,85.2,11.8l2.46,3.53ZM82.55,6.42H80.48v3.83h2.07c1.55,0,2.34-.73,2.34-1.92S84.1,6.42,82.55,6.42Z"/><path class="cls-2" d="M88.78,9.84a6,6,0,1,1,6,5.67A5.68,5.68,0,0,1,88.78,9.84Zm9.43,0a3.43,3.43,0,1,0-6.86,0,3.43,3.43,0,1,0,6.86,0Z"/><path class="cls-2" d="M106.7,11l-1.48,1.54v2.78H102.7v-11h2.52V9.48l4.86-5.13h2.83l-4.55,4.89,4.81,6.09h-3Z"/><path class="cls-2" d="M113.54,13.91a1.52,1.52,0,0,1,3,0,1.52,1.52,0,1,1-3,0Z"/><path class="cls-2" d="M117.4,12.88a2.69,2.69,0,1,1,2.69,2.52A2.51,2.51,0,0,1,117.4,12.88Zm3.93,0a1.25,1.25,0,1,0-2.49,0,1.25,1.25,0,1,0,2.49,0Z"/><path class="cls-2" d="M126.74,10.37v1.31l-.31,0a1.2,1.2,0,0,0-1.3,1.36v2.31h-1.42V10.44h1.35v.65A2,2,0,0,1,126.74,10.37Z"/><path class="cls-2" d="M132.58,10.44v4.07c0,1.81-1,2.65-2.74,2.65a4.06,4.06,0,0,1-2.4-.67l.57-1a2.86,2.86,0,0,0,1.72.56c1,0,1.43-.46,1.43-1.34v-.21a2,2,0,0,1-1.54.61,2.36,2.36,0,1,1,0-4.72,2,2,0,0,1,1.62.7v-.63Zm-1.4,2.29a1.18,1.18,0,0,0-1.28-1.2,1.2,1.2,0,1,0,0,2.4A1.18,1.18,0,0,0,131.18,12.73Z"/><path class="cls-3" d="M10.38,8.6h-.07V8.35a.3.3,0,0,1-.19-.14.26.26,0,0,1,0-.27.22.22,0,0,1,.23-.1.23.23,0,0,0-.18.13.22.22,0,0,0,0,.21.24.24,0,0,0,.17.12.27.27,0,0,0,.22-.08.24.24,0,0,1-.19.13Z"/><circle class="cls-3" cx="10.34" cy="11.5" r="0.43"/><path class="cls-3" d="M10.94,9.65l.9.83v2.09l-.7.28h-.72L11,12a.86.86,0,0,0,.23-.58.87.87,0,0,0-1.74,0,.83.83,0,0,0,.24.58l.56.81h-.8l-.63-.28V10.48l.91-.83h.07V9.13a.52.52,0,0,1,.52-.53.55.55,0,0,1,.53.53v.52Z"/><path class="cls-2" d="M14.13,8.75l-.32-1.92-1.92-.29L10.31,5.4,8.74,6.56l-1.91.31-.3,1.92L5.4,10.37l1.16,1.57.31,1.92,1.92.29,1.59,1.13,1.56-1.15,1.92-.32.29-1.92,1.13-1.58Zm-3.79,4.7a3.11,3.11,0,1,1,3.11-3.11A3.11,3.11,0,0,1,10.34,13.45Z"/><polygon class="cls-4" points="10.34 10.34 10.34 10.34 10.34 10.34 10.34 10.34"/><polygon class="cls-4" points="10.34 10.34 10.34 10.34 10.34 10.34 10.34 10.34"/><path class="cls-1" d="M19.25,13.54l-3.11-3.23L19.2,7a.4.4,0,0,0,.12-.28.42.42,0,0,0-.42-.44l-4.48-.1-.15-4.48a.5.5,0,0,0-.12-.28.43.43,0,0,0-.61,0l-3.23,3.1L7,1.48a.45.45,0,0,0-.28-.12.44.44,0,0,0-.44.43l-.1,4.48-4.48.15a.39.39,0,0,0-.28.12.43.43,0,0,0,0,.61l3.1,3.23L1.48,13.66a.45.45,0,0,0-.12.28.44.44,0,0,0,.43.44l4.48.09L6.42,19a.38.38,0,0,0,.12.28.43.43,0,0,0,.61,0l3.23-3.11,3.28,3.07a.44.44,0,0,0,.28.11.43.43,0,0,0,.44-.42l.09-4.48L19,14.27a.5.5,0,0,0,.28-.12A.43.43,0,0,0,19.25,13.54Zm-4.77.57,0-2.07-.32,2.11-2.1.35,2.06-.07-.55,3.65-3-2.15L12.1,14.5l-1.72,1.26L8.64,14.52l1.51,1.41-3,2.19-.6-3.64,2.06,0L6.53,14.2l-.34-2.1.07,2.06L2.6,13.61l2.16-3L6.19,12.1,4.92,10.38,6.16,8.64l-1.4,1.51-2.2-3,3.65-.6,0,2.06.32-2.11,2.11-.34-2.06.07L7.08,2.6l3,2.16L8.59,6.19l1.72-1.27L12,6.16l-1.51-1.4,3-2.2.6,3.65L12,6.16l2.11.32.35,2.11-.07-2.06,3.65.55-2.15,3L14.5,8.59l1.26,1.72L14.52,12l1.41-1.51,2.19,3Z"/><path class="cls-2" d="M6.48,1.18A.6.6,0,0,0,6.79.41.59.59,0,1,0,5.71.87.6.6,0,0,0,6.48,1.18Z"/><path class="cls-2" d="M14.09,1.13a.58.58,0,0,0,.76-.32.59.59,0,1,0-.76.32Z"/><path class="cls-2" d="M20.28,6.79A.6.6,0,0,0,20.59,6a.59.59,0,0,0-1.08.46A.6.6,0,0,0,20.28,6.79Z"/><path class="cls-2" d="M20.32,13.77a.58.58,0,1,0,.32.76A.58.58,0,0,0,20.32,13.77Z"/><path class="cls-2" d="M14.21,19.51a.58.58,0,0,0-.31.77.59.59,0,0,0,.76.31.6.6,0,0,0,.32-.77A.58.58,0,0,0,14.21,19.51Z"/><path class="cls-2" d="M6.6,19.56a.6.6,0,0,0-.77.32.59.59,0,1,0,.77-.32Z"/><path class="cls-2" d="M.41,13.9a.57.57,0,0,0-.31.76A.59.59,0,0,0,.87,15a.6.6,0,0,0,.31-.77A.58.58,0,0,0,.41,13.9Z"/><path class="cls-2" d="M.36,6.92a.59.59,0,0,0,.77-.32.6.6,0,0,0-.32-.77A.59.59,0,0,0,.36,6.92Z"/><path class="cls-5" d="M10.38,8.6h-.07V8.35a.3.3,0,0,1-.19-.14.26.26,0,0,1,0-.27.22.22,0,0,1,.23-.1.23.23,0,0,0-.18.13.22.22,0,0,0,0,.21.24.24,0,0,0,.17.12.27.27,0,0,0,.22-.08.24.24,0,0,1-.19.13Z"/><circle class="cls-5" cx="10.34" cy="11.5" r="0.43"/><path class="cls-5" d="M11.84,10.48v2.09l-.7.28h-.72L11,12a.86.86,0,0,0,.23-.58.87.87,0,0,0-1.74,0,.83.83,0,0,0,.24.58l.56.81h-.8l-.63-.28V10.48l.91-.83h.07V9.13a.52.52,0,0,1,.52-.53.55.55,0,0,1,.53.53v.52h.07Z"/><circle class="cls-3" cx="10.34" cy="11.5" r="0.43"/><path class="cls-2" d="M11.84,10.48v2.09l-.7.28h-.72L11,12a.86.86,0,0,0,.23-.58.87.87,0,0,0-1.74,0,.83.83,0,0,0,.24.58l.56.81h-.8l-.63-.28V10.48l.91-.83h.07V9.13a.52.52,0,0,1,.52-.53.55.55,0,0,1,.53.53v.52h.07Z"/><path class="cls-3" d="M10.57,8.22a.24.24,0,0,1-.19.13V8.6h-.07V8.35a.3.3,0,0,1-.19-.14.26.26,0,0,1,0-.27.22.22,0,0,1,.23-.1.23.23,0,0,0-.18.13.22.22,0,0,0,0,.21.24.24,0,0,0,.17.12A.27.27,0,0,0,10.57,8.22Z"/></g></g></svg>