<svg xmlns="http://www.w3.org/2000/svg" viewBox="0 0 30.36 30.37"><defs><style>.cls-1{fill:#01a67c;}</style></defs><title>mail-icon</title><g id="Layer_2" data-name="Layer 2"><g id="Layer_1-2" data-name="Layer 1"><path class="cls-1" d="M15.18,30.37A15.19,15.19,0,1,1,30.36,15.18,15.21,15.21,0,0,1,15.18,30.37Zm0-28.52A13.34,13.34,0,1,0,28.51,15.18,13.35,13.35,0,0,0,15.18,1.85Z"/><path class="cls-1" d="M14.21,15.45a1.38,1.38,0,0,0,1,.46,1.41,1.41,0,0,0,1-.46l4.5-5.11a.58.58,0,0,1,.12-.1,1.6,1.6,0,0,0-.62-.13H10.2a1.53,1.53,0,0,0-.6.12l0,0Z"/><path class="cls-1" d="M21.59,10.84a.6.6,0,0,1-.09.15L17,16.09a2.35,2.35,0,0,1-3.53,0L8.89,10.9l0,0a1.58,1.58,0,0,0-.22.81v7a1.54,1.54,0,0,0,1.55,1.55H20.27a1.55,1.55,0,0,0,1.56-1.55v-7A1.55,1.55,0,0,0,21.59,10.84Z"/></g></g></svg>