<svg xmlns="http://www.w3.org/2000/svg" viewBox="0 0 23.1 31.16"><defs><style>.cls-1{fill:#01a67c;}</style></defs><title>mark-icon</title><g id="Layer_2" data-name="Layer 2"><g id="Layer_1-2" data-name="Layer 1"><path class="cls-1" d="M23.06,11.74c0-.07,0-.14,0-.21A11.54,11.54,0,0,0,0,11.53v.21H0a11.54,11.54,0,0,0,3.35,7.92,33.45,33.45,0,0,1,4.41,5.57l3.77,5.93,3.82-6a32.85,32.85,0,0,1,4.37-5.52,11.47,11.47,0,0,0,3.34-7.85l0-.07ZM11.55,20.63a8.69,8.69,0,1,1,8.69-8.69A8.69,8.69,0,0,1,11.55,20.63Z"/><path class="cls-1" d="M11.47,19.26H16s1.23-2.24.17-3.89c-.94-1.48-3.88-2.48-4.53-3.55V11A.57.57,0,0,0,12,11a.46.46,0,0,0,.31-.43.55.55,0,0,1-.38.16.39.39,0,0,1-.3-.1.51.51,0,0,1-.16-.27.62.62,0,0,1,.08-.4.47.47,0,0,0-.35.39.6.6,0,0,0,.21.56l.05,0v.88c-.65,1.07-3.58,2.07-4.52,3.55-1.06,1.65.17,3.89.17,3.89Z"/><path class="cls-1" d="M15.6,19.72h-8a.85.85,0,0,0-.85.85v.63h9.72v-.63A.85.85,0,0,0,15.6,19.72Z"/></g></g></svg>