<?xml version="1.0" encoding="utf-8"?>
<!-- Generator: Adobe Illustrator 22.0.1, SVG Export Plug-In . SVG Version: 6.00 Build 0)  -->
<svg version="1.1" id="Layer_1" xmlns="http://www.w3.org/2000/svg" xmlns:xlink="http://www.w3.org/1999/xlink" x="0px" y="0px"
	 viewBox="0 0 40 40" style="enable-background:new 0 0 40 40;" xml:space="preserve">
<style type="text/css">
	.st0{fill:#01A67C;}
	.st1{fill:#FFFFFF;}
	.st2{fill:#CCCCCC;}
</style>
<polyline class="st1" points="9.3,13.9 9.3,13.9 9.3,26.2 17.7,28.7 27.8,24.9 27.8,14.9 18.9,11.2 "/>
<g>
	<path class="st0" d="M25.6,23.9c-1,0.4-2-0.8-2.2-2.6l0,0c0.1,1.9-0.7,3.6-1.7,3.9c-1,0.4-2-0.8-2.2-2.6l-1,0.3l-1-0.3
		c-0.2,1.8-1.2,3-2.2,2.6c-1-0.4-1.8-2.1-1.7-3.9l0,0c-0.2,1.8-1.2,2.9-2.2,2.6c-1-0.4-1.7-2.1-1.7-3.9l-0.4-0.2v6.8
		c0,0.1-0.1,0.1,0,0.2l9.2,3.1c0,0,0,0,0.1,0c0,0,0,0,0.1,0l9.3-3.1c0.1,0,0-0.1,0-0.2v-6.8L27.3,20C27.4,21.9,26.7,23.6,25.6,23.9z
		"/>
	<path class="st0" d="M11.6,22.1c0.7,0.2,1.3-0.2,1.7-0.9l-3.1-1.1C10.5,21.1,11,21.9,11.6,22.1z"/>
	<path class="st0" d="M15.6,23.5c0.7,0.2,1.3-0.2,1.7-1l-3.2-1.1C14.4,22.5,14.9,23.3,15.6,23.5z"/>
	<path class="st0" d="M25.9,22.1c0.6-0.2,1.2-1,1.5-2l-3.1,1.1C24.6,22,25.2,22.4,25.9,22.1z"/>
	<path class="st0" d="M21.9,23.5c0.7-0.2,1.2-1,1.5-2.1l-3.2,1.1C20.6,23.3,21.3,23.7,21.9,23.5z"/>
	<path class="st0" d="M27.8,13.7l-9-3.3c0,0-0.1,0-0.1,0l-9.4,3.5c-0.1,0,0-0.1,0,0c0,0,0,0,0,0v3.6l9.5,3.1l9.1-3.1v-3.6
		c0,0,0,0,0,0C27.8,13.8,27.9,13.7,27.8,13.7z M18.8,15.9l-6.1-2.1l6.1-2.2l6.1,2.2L18.8,15.9z"/>
</g>
<g>
	<path class="st0" d="M28.7,24.2h0.4v2h1v0.4h-1.4V24.2z"/>
	<path class="st0" d="M30.9,24.2v2.3h-0.4v-2.3H30.9z"/>
	<path class="st0" d="M31.9,26.6l-0.8-2.3h0.5l0.3,1.1c0.1,0.3,0.2,0.6,0.2,0.9h0c0.1-0.3,0.2-0.6,0.2-0.8l0.3-1.1h0.5l-0.8,2.3
		H31.9z"/>
	<path class="st0" d="M34.8,25.5h-0.9v0.7h1v0.4h-1.4v-2.3h1.4v0.4h-0.9v0.6h0.9V25.5z"/>
</g>
</svg>
