<svg xmlns="http://www.w3.org/2000/svg" viewBox="0 0 25.64 19.5"><defs><style>.cls-1{fill:#fff;}.cls-2{fill:#01a67c;}</style></defs><title>search-icon</title><g id="Layer_2" data-name="Layer 2"><g id="Layer_1-2" data-name="Layer 1"><polyline class="cls-1" points="0.04 3.5 0.04 3.5 0.04 15.8 8.44 18.3 18.54 14.5 18.54 4.5 9.64 0.8"/><path class="cls-2" d="M16.34,13.5c-1,.4-2-.8-2.2-2.6h0c.1,1.9-.7,3.6-1.7,3.9s-2-.8-2.2-2.6l-1,.3-1-.3C8,14,7,15.2,6,14.8s-1.8-2.1-1.7-3.9h0c-.2,1.8-1.2,2.9-2.2,2.6S.44,11.4.44,9.6L0,9.4v6.8c0,.1-.1.1,0,.2l9.2,3.1h.2l9.3-3.1c.1,0,0-.1,0-.2V9.4l-.7.2C18.14,11.5,17.44,13.2,16.34,13.5Z"/><path class="cls-2" d="M2.34,11.7A1.49,1.49,0,0,0,4,10.8L.94,9.7A2.9,2.9,0,0,0,2.34,11.7Z"/><path class="cls-2" d="M6.34,13.1c.7.2,1.3-.2,1.7-1L4.84,11C5.14,12.1,5.64,12.9,6.34,13.1Z"/><path class="cls-2" d="M16.64,11.7a3,3,0,0,0,1.5-2L15,10.8C15.34,11.6,15.94,12,16.64,11.7Z"/><path class="cls-2" d="M12.64,13.1c.7-.2,1.2-1,1.5-2.1l-3.2,1.1C11.34,12.9,12,13.3,12.64,13.1Z"/><path class="cls-2" d="M18.54,3.3,9.54,0h-.1L0,3.5c-.1,0,0-.1,0,0H0V7.1l9.5,3.1,9.1-3.1V3.5h0C18.54,3.4,18.64,3.3,18.54,3.3Zm-9,2.2L3.44,3.4l6.1-2.2,6.1,2.2Z"/><path class="cls-2" d="M19.44,13.8h.4v2h1v.4h-1.4Z"/><path class="cls-2" d="M21.64,13.8v2.3h-.4V13.8Z"/><path class="cls-2" d="M22.64,16.2l-.8-2.3h.5l.3,1.1a2.92,2.92,0,0,1,.2.9h0a3.09,3.09,0,0,0,.2-.8l.3-1.1h.5L23,16.3h-.4Z"/><path class="cls-2" d="M25.54,15.1h-.9v.7h1v.4h-1.4V13.9h1.4v.4h-.9v.6h.9v.2Z"/></g></g></svg>