<svg xmlns="http://www.w3.org/2000/svg" viewBox="0 0 512 375.49"><defs><style>.cls-1{fill:#01a67c;}.cls-2{fill:#006f7b;}</style></defs><title>menu</title><g id="Layer_2" data-name="Layer 2"><g id="Capa_1" data-name="Capa 1"><path class="cls-1" d="M479.18,65.64H32.82A32.82,32.82,0,0,1,32.82,0H479.18a32.82,32.82,0,0,1,0,65.64Z"/><path class="cls-1" d="M183.79,187.74a32.81,32.81,0,0,1,32.82-32.82H479.18a32.82,32.82,0,0,1,0,65.64H216.61A32.81,32.81,0,0,1,183.79,187.74Z"/><path class="cls-2" d="M0,187.74a32.81,32.81,0,0,1,32.82-32.82H85.33a32.82,32.82,0,0,1,0,65.64H32.82A32.81,32.81,0,0,1,0,187.74Z"/><path class="cls-1" d="M479.18,375.49H32.82a32.83,32.83,0,0,1,0-65.65H479.18a32.83,32.83,0,0,1,0,65.65Z"/></g></g></svg>