<?xml version="1.0" encoding="utf-8"?>
<!-- Generator: Adobe Illustrator 23.0.2, SVG Export Plug-In . SVG Version: 6.00 Build 0)  -->
<svg version="1.1" id="Layer_1" xmlns="http://www.w3.org/2000/svg" xmlns:xlink="http://www.w3.org/1999/xlink" x="0px" y="0px"
	 viewBox="0 0 40 40" style="enable-background:new 0 0 40 40;" xml:space="preserve">
<g>
	<path d="M15.5,23.7c0-0.4-0.3-0.7-0.9-0.7c-0.2,0-0.4,0-0.5,0v1.4c0.1,0,0.2,0,0.4,0C15.1,24.5,15.5,24.2,15.5,23.7L15.5,23.7z"/>
	<path d="M18.9,23c-0.2,0-0.4,0-0.5,0v3.2c0.1,0,0.2,0,0.4,0c1,0,1.6-0.5,1.6-1.7C20.4,23.6,19.8,23,18.9,23L18.9,23z"/>
	<path d="M25.2,6.4H14.3c-1.6,0-2.9,1.3-2.9,2.9v10.6h-0.3c-0.6,0-1.2,0.5-1.2,1.2v7c0,0.6,0.5,1.2,1.2,1.2h0.3v1.3
		c0,1.6,1.3,2.9,2.9,2.9h14.8c1.6,0,2.9-1.3,2.9-2.9V13.2L25.2,6.4z M13.1,22.3c0.3-0.1,0.8-0.1,1.5-0.1s1.2,0.1,1.5,0.4
		c0.3,0.2,0.5,0.7,0.5,1.1s-0.2,0.9-0.4,1.2c-0.4,0.4-0.9,0.5-1.6,0.5c-0.1,0-0.3,0-0.4,0v1.7h-1.1V22.3z M29.1,31.6H14.3
		c-0.6,0-1.1-0.5-1.1-1.1v-1.3H27c0.6,0,1.2-0.5,1.2-1.2v-7c0-0.6-0.5-1.2-1.2-1.2H13.2V9.2c0-0.6,0.5-1.1,1.1-1.1h10.2v3.8
		c0,1.1,0.9,2,2,2h3.7v16.6C30.2,31.1,29.7,31.6,29.1,31.6L29.1,31.6z M17.3,27.1v-4.8c0.4-0.1,0.9-0.1,1.5-0.1c0.9,0,1.5,0.2,2,0.5
		c0.5,0.4,0.8,1,0.8,1.8c0,0.9-0.3,1.6-0.8,2s-1.3,0.6-2.2,0.6C17.9,27.1,17.5,27.1,17.3,27.1L17.3,27.1z M25.1,24.2v0.9h-1.7v2
		h-1.1v-4.9h3v0.9h-1.9v1.1H25.1z"/>
</g>
</svg>
