<svg xmlns="http://www.w3.org/2000/svg" viewBox="0 0 30.36 30.37"><defs><style>.cls-1{fill:#01a67c;}</style></defs><title>phone-icon</title><g id="Layer_2" data-name="Layer 2"><g id="Layer_1-2" data-name="Layer 1"><path class="cls-1" d="M15.18,30.37A15.19,15.19,0,1,1,30.36,15.18,15.21,15.21,0,0,1,15.18,30.37Zm0-28.52A13.34,13.34,0,1,0,28.51,15.18,13.35,13.35,0,0,0,15.18,1.85Z"/><path class="cls-1" d="M19.75,16.9a6.09,6.09,0,0,1-2-.31.91.91,0,0,0-.88.19l-1.23.93a6.88,6.88,0,0,1-3.08-3.07l.91-1.21a.91.91,0,0,0,.22-.9,6.21,6.21,0,0,1-.32-2,.88.88,0,0,0-.88-.88h-2a.88.88,0,0,0-.88.88A10.14,10.14,0,0,0,19.75,20.69a.88.88,0,0,0,.88-.89v-2A.88.88,0,0,0,19.75,16.9Z"/></g></g></svg>