<?xml version="1.0" encoding="utf-8"?>
<!-- Generator: Adobe Illustrator 22.0.1, SVG Export Plug-In . SVG Version: 6.00 Build 0)  -->
<svg version="1.1" id="Layer_1" xmlns="http://www.w3.org/2000/svg" xmlns:xlink="http://www.w3.org/1999/xlink" x="0px" y="0px"
	 viewBox="0 0 40 40" style="enable-background:new 0 0 40 40;" xml:space="preserve">
<style type="text/css">
	.st0{fill:#01A67C;}
	.st1{fill:#FFFFFF;}
	.st2{fill:#CCCCCC;}
	.st3{fill:#E0CE2D;}
	.st4{fill:#FFFFFF;stroke:#01A67C;stroke-width:2.2105;stroke-miterlimit:10;}
	.st5{fill:#FFFFFF;stroke:#01A67C;stroke-width:1.3609;stroke-miterlimit:10;}
	.st6{fill:#11B68D;}
</style>
<path class="st0" d="M15.8,17.9c0.7,2.8,4.2,6.2,6.9,6.9c1.2,0.3,2.5-0.4,2.9-1.6l0,0c0.5-1.7,2.8-2.2,4.1-0.9l3.7,3.7
	c0.9,0.9,0.9,2.5,0,3.6L30.8,32c-2.6,2.6-9.6-0.3-15.9-6.5C8.8,19.3,6,12.3,8.5,9.7L11,7.2c0.9-0.9,2.5-0.9,3.6,0l3.7,3.7
	c1.3,1.3,0.8,3.6-0.9,4.1l0,0C16.2,15.4,15.4,16.7,15.8,17.9z"/>
</svg>
