<?xml version="1.0" encoding="utf-8"?>
<!-- Generator: Adobe Illustrator 22.0.1, SVG Export Plug-In . SVG Version: 6.00 Build 0)  -->
<svg version="1.1" id="Layer_1" xmlns="http://www.w3.org/2000/svg" xmlns:xlink="http://www.w3.org/1999/xlink" x="0px" y="0px"
	 viewBox="0 0 40 40" style="enable-background:new 0 0 40 40;" xml:space="preserve">
<style type="text/css">
	.st0{fill:#01A67C;}
	.st1{fill:#FFFFFF;}
	.st2{fill:#CCCCCC;}
</style>
<rect x="14" y="9" class="st1" width="14" height="19"/>
<g>
	<g>
		<path class="st0" d="M29.8,30.3L29.8,30.3l0-23.6H11.1v23.6h18.3c0.5,0.9,0.3,2-0.4,2.7l0,0H11.1v0.4h18l0.2-0.2
			C30.1,32.5,30.3,31.3,29.8,30.3z M25.7,26.9H15.2V15.6c0-1.6,1-3,2.5-3.5c0.5-0.2,1-0.5,1.4-0.9l1.3-1.1l1.3,1.1
			c0.4,0.4,0.9,0.7,1.4,0.9c0.7,0.3,1.4,0.8,1.8,1.4c0.4,0.6,0.7,1.4,0.7,2.2V26.9z"/>
	</g>
	<g>
		<path class="st0" d="M29,31.6c0-0.5-0.4-0.8-0.8-0.8H11.6v1.7h16.6C28.7,32.4,29,32.1,29,31.6z"/>
	</g>
	<g>
		<polygon class="st0" points="19.1,21.8 22.4,19.6 19.1,17.4 		"/>
	</g>
</g>
</svg>
