<svg xmlns="http://www.w3.org/2000/svg" viewBox="0 0 18.79 26.53"><defs><style>.cls-1{fill:#01a67c;}</style></defs><title>pray-icon</title><g id="Layer_2" data-name="Layer 2"><g id="Layer_1-2" data-name="Layer 1"><path class="cls-1" d="M18.79,1.33h-.47L18.1,0l-.22,1.33H16.39L16.16,0l-.22,1.33H14.45L14.23,0,14,1.33H12.52L12.3,0l-.22,1.33h-1.5L10.36,0l-.22,1.33H8.65L8.43,0,8.21,1.33H6.71L6.49,0,6.27,1.33H4.78L4.56,0,4.34,1.33H2.85L2.63,0,2.4,1.33H.91L.69,0,.47,1.33H0V24.92H.42l.27,1.61L1,24.92h1.4l.27,1.61.26-1.61h1.4l.27,1.61.27-1.61h1.4l.26,1.61.27-1.61h1.4l.27,1.61.26-1.61h1.4l.27,1.61.27-1.61H12l.27,1.61.26-1.61H14l.27,1.61.27-1.61h1.4l.26,1.61.27-1.61h1.4l.27,1.61.27-1.61h.42ZM14.61,21.55H4.18V10.19A3.78,3.78,0,0,1,6.67,6.64a3.71,3.71,0,0,0,1.38-.88L9.39,4.7l1.35,1.06a3.71,3.71,0,0,0,1.38.88A3.83,3.83,0,0,1,13.92,8a3.74,3.74,0,0,1,.69,2.17Z"/><path class="cls-1" d="M12,12.28a3.73,3.73,0,1,0-2.64,6.37A3.73,3.73,0,0,0,12,12.28Zm-2.57-.81a3.51,3.51,0,0,1,2.33,1l-.2.2a3.19,3.19,0,0,0-2.13-.88Zm-.13,0v.28a3.19,3.19,0,0,0-2.13.88l-.2-.2A3.51,3.51,0,0,1,9.33,11.47ZM6.9,12.53l.2.2a3.15,3.15,0,0,0-.88,2.12H5.94A3.47,3.47,0,0,1,6.9,12.53ZM5.94,15h.28a3.15,3.15,0,0,0,.88,2.12l-.2.2A3.47,3.47,0,0,1,5.94,15Zm3.39,3.38a3.42,3.42,0,0,1-2.33-1l.2-.2a3.15,3.15,0,0,0,2.13.88Zm-2-1.4a2.89,2.89,0,0,1-.85-2,2.92,2.92,0,0,1,.85-2.05,2.91,2.91,0,0,1,4.11,0,2.92,2.92,0,0,1,.85,2.05,2.91,2.91,0,0,1-5,2Zm2.12,1.4v-.28a3.15,3.15,0,0,0,2.13-.88l.2.2A3.46,3.46,0,0,1,9.46,18.37Zm2.43-1.06-.2-.2A3.15,3.15,0,0,0,12.57,15h.28A3.47,3.47,0,0,1,11.89,17.31Zm.68-2.46a3.15,3.15,0,0,0-.88-2.12l.2-.2a3.47,3.47,0,0,1,1,2.32Z"/><path class="cls-1" d="M8.27,17.14A12.68,12.68,0,0,0,9.59,15a14.22,14.22,0,0,0,.93-2.32A13.1,13.1,0,0,0,9.2,14.82,14.22,14.22,0,0,0,8.27,17.14Z"/></g></g></svg>