<?xml version="1.0" encoding="utf-8"?>
<!-- Generator: Adobe Illustrator 22.0.1, SVG Export Plug-In . SVG Version: 6.00 Build 0)  -->
<svg version="1.1" id="Layer_1" xmlns="http://www.w3.org/2000/svg" xmlns:xlink="http://www.w3.org/1999/xlink" x="0px" y="0px"
	 viewBox="0 0 40 40" style="enable-background:new 0 0 40 40;" xml:space="preserve">
<style type="text/css">
	.st0{fill:#01A67C;}
	.st1{fill:#FFFFFF;}
	.st2{fill:#CCCCCC;}
</style>
<g>
	<g>
		<path class="st0" d="M18.5,22.3c-3.3,0-5.9,2.6-5.9,5.9v5.5h11.8v-5.5C24.4,24.9,21.8,22.3,18.5,22.3z"/>
	</g>
	<g>
		<path class="st0" d="M19.1,14.6c1.2-0.9,2-2,2.6-3c-0.9-0.7-2.1-1.1-3.4-1.1c-3,0-5.5,2.5-5.5,5.5c0,0.3,0,0.6,0.1,0.9
			C14.6,16.8,17,16.3,19.1,14.6z"/>
	</g>
	<g>
		<path class="st0" d="M19.6,15.2c-2.2,1.8-4.7,2.3-6.5,2.4c0.7,2.2,2.8,3.9,5.3,3.9c3,0,5.5-2.5,5.5-5.5c0-1.5-0.6-2.9-1.6-3.9
			C21.7,13.2,20.8,14.3,19.6,15.2z"/>
	</g>
	<g>
		<path class="st0" d="M27.7,21c0.2-0.4-0.1-1.2-0.8-1.7c-0.7-0.6-1.6-0.7-1.9-0.3c-0.3,0.4,0,1.2,0.7,1.8c0.5,0.4,1.1,0.6,1.5,0.6
			l0.3,0.3v12.1h0.6V21.4L27.7,21z"/>
	</g>
	<g>
		<polygon class="st0" points="25,14.8 24.9,16.8 25.4,14.9 		"/>
	</g>
	<g>
		<polygon class="st0" points="27.5,14.5 25.4,17.1 27.8,14.7 		"/>
	</g>
	<g>
		<polygon class="st0" points="27.5,17.5 27.4,17.1 25.5,17.7 		"/>
	</g>
</g>
</svg>
