<?xml version="1.0" encoding="utf-8"?>
<!-- Generator: Adobe Illustrator 22.0.1, SVG Export Plug-In . SVG Version: 6.00 Build 0)  -->
<svg version="1.1" id="Layer_1" xmlns="http://www.w3.org/2000/svg" xmlns:xlink="http://www.w3.org/1999/xlink" x="0px" y="0px"
	 viewBox="0 0 40 40" style="enable-background:new 0 0 40 40;" xml:space="preserve">
<style type="text/css">
	.st0{fill:#01A67C;}
	.st1{fill:#FFFFFF;}
	.st2{fill:#CCCCCC;}
</style>
<path class="st2" d="M9.4,30.3C9.4,30.3,9.4,30.3,9.4,30.3c-0.8,0.9-0.8,2.1,0,2.9c0.8,0.7,2,0.7,2.8-0.1l6.9-6.9
	c3.2,1.9,7.2,1.7,10.2-0.4c4.2-3,5.2-8.9,2.2-13.1c-3-4.2-8.9-5.2-13.1-2.2c-4.2,3-5.2,8.9-2.2,13.1L9.4,30.3z M23.9,24.1
	c-3.4,0-6.1-2.7-6.1-6.1c0-3.3,2.7-6.1,6.1-6.1c3.4,0,6.1,2.7,6.1,6.1C30,21.4,27.3,24.1,23.9,24.1L23.9,24.1z M23.9,24.1"/>
</svg>
