<?xml version="1.0" encoding="utf-8"?>
<!-- Generator: Adobe Illustrator 22.0.1, SVG Export Plug-In . SVG Version: 6.00 Build 0)  -->
<svg version="1.1" id="Layer_1" xmlns="http://www.w3.org/2000/svg" xmlns:xlink="http://www.w3.org/1999/xlink" x="0px" y="0px"
	 viewBox="0 0 40 40" style="enable-background:new 0 0 40 40;" xml:space="preserve">
<style type="text/css">
	.st0{fill:#01A67C;}
	.st1{fill:#FFFFFF;}
	.st2{fill:#CCCCCC;}
</style>
<path class="st2" d="M23.3,23c-1.2,0-2.2,0.5-2.9,1.3l-7.2-4.1c0.1-0.4,0.2-0.8,0.2-1.2c0-0.4-0.1-0.8-0.2-1.2l7.2-4.1
	c0.7,0.8,1.8,1.3,2.9,1.3c2.2,0,4-1.8,4-4c0-2.2-1.8-4-4-4c-2.2,0-4,1.8-4,4c0,0.3,0,0.6,0.1,0.9l-7.3,4.2c-0.7-0.7-1.7-1.1-2.8-1.1
	c-2.2,0-4,1.8-4,4c0,2.2,1.8,4,4,4c1.1,0,2.1-0.4,2.8-1.1l7.3,4.2c-0.1,0.3-0.1,0.6-0.1,0.9c0,2.2,1.8,4,4,4c2.2,0,4-1.8,4-4
	C27.2,24.8,25.5,23,23.3,23z"/>
</svg>
