<svg xmlns="http://www.w3.org/2000/svg" viewBox="0 0 22.26 24.63"><defs><style>.cls-1{fill:#01a67c;}</style></defs><title>time-icon</title><g id="Layer_2" data-name="Layer 2"><g id="Layer_1-2" data-name="Layer 1"><path class="cls-1" d="M21,20.36s2.69-4.9.37-8.52c-2.06-3.22-8.49-5.42-9.91-7.76V2.36A1.09,1.09,0,0,0,12,2.28a1,1,0,0,0,.68-.94,1.31,1.31,0,0,1-.83.36,1.1,1.1,0,0,1-.65-.22,1,1,0,0,1-.35-.6A1.31,1.31,0,0,1,11.05,0a1,1,0,0,0-.77.86,1.28,1.28,0,0,0,.46,1.22l.12.08V4.08C9.44,6.42,3,8.62.94,11.84c-2.31,3.62.37,8.52.37,8.52ZM11.13,8.05A5.25,5.25,0,1,1,5.88,13.3,5.25,5.25,0,0,1,11.13,8.05Z"/><path class="cls-1" d="M20,21.38H2.43A1.87,1.87,0,0,0,.57,23.25v1.38H21.88V23.25A1.87,1.87,0,0,0,20,21.38Z"/><path class="cls-1" d="M11.7,13.29c-.49.91-.95,1.84-1.42,2.76l.05,0c.57-.89,1.16-1.78,1.72-2.68l0-.07,0-.09c-.24-.66-.45-1.32-.7-2a8.49,8.49,0,0,0-1-1.83l-.05,0a8.7,8.7,0,0,0,.55,2C11.11,12.08,11.42,12.68,11.7,13.29Z"/></g></g></svg>