<svg xmlns="http://www.w3.org/2000/svg" viewBox="0 0 28.42 28.42"><defs><style>.cls-1{fill:#01a67c;}</style></defs><title>tw-icon</title><g id="Layer_2" data-name="Layer 2"><g id="Layer_1-2" data-name="Layer 1"><path class="cls-1" d="M14.21,28.42A14.21,14.21,0,1,1,28.42,14.21,14.23,14.23,0,0,1,14.21,28.42Zm0-26.69A12.48,12.48,0,1,0,26.69,14.21,12.5,12.5,0,0,0,14.21,1.73Z"/><path class="cls-1" d="M21.5,10.23a5.69,5.69,0,0,1-1.28.37c.2,0,.51-.41.63-.56a2.39,2.39,0,0,0,.43-.78s0,0,0-.07a.07.07,0,0,0-.06,0,6.43,6.43,0,0,1-1.53.58.09.09,0,0,1-.1,0l-.14-.13a2.79,2.79,0,0,0-.74-.46,2.74,2.74,0,0,0-3.07.83,2.91,2.91,0,0,0-.52,1,2.72,2.72,0,0,0,0,1.1c0,.06,0,.06-.06.06A8.18,8.18,0,0,1,9.79,9.52c-.06-.07-.09-.07-.14,0a2.64,2.64,0,0,0,.45,3.13l.32.29a2.65,2.65,0,0,1-1-.29q-.09,0-.09.06a1.53,1.53,0,0,0,0,.3A2.7,2.7,0,0,0,11,15.16a1.8,1.8,0,0,0,.33.1,2.72,2.72,0,0,1-1,0c-.07,0-.1,0-.07.09a2.8,2.8,0,0,0,2.08,1.75,1.45,1.45,0,0,1,.29,0h0a3.21,3.21,0,0,1-1.42.76A5,5,0,0,1,9,18.21a.41.41,0,0,0-.17,0s0,.05,0,.08.3.18.45.27a7.48,7.48,0,0,0,1.44.58,7.7,7.7,0,0,0,7.47-1.75,7.85,7.85,0,0,0,2.07-5.72c0-.08.09-.12.15-.17a5.13,5.13,0,0,0,1-1.06.29.29,0,0,0,.07-.2h0S21.56,10.21,21.5,10.23Z"/></g></g></svg>