<?xml version="1.0" encoding="utf-8"?>
<!-- Generator: Adobe Illustrator 22.0.1, SVG Export Plug-In . SVG Version: 6.00 Build 0)  -->
<svg version="1.1" id="Layer_1" xmlns="http://www.w3.org/2000/svg" xmlns:xlink="http://www.w3.org/1999/xlink" x="0px" y="0px"
	 viewBox="0 0 40 40" style="enable-background:new 0 0 40 40;" xml:space="preserve">
<style type="text/css">
	.st0{fill:#01A67C;}
	.st1{fill:#FFFFFF;}
	.st2{fill:#CCCCCC;}
	.st3{fill:#E0CE2D;}
	.st4{fill:#FFFFFF;stroke:#01A67C;stroke-width:2.2105;stroke-miterlimit:10;}
	.st5{fill:#FFFFFF;stroke:#01A67C;stroke-width:1.3609;stroke-miterlimit:10;}
	.st6{fill:#11B68D;}
</style>
<path class="st1" d="M35,17.7v6.6c0,0.8-0.4,1.6-1,2c-2.1,5.1-7.1,8.7-13,8.7s-10.9-3.6-13-8.7c-0.6-0.4-1-1.2-1-2v-6.6
	c0-0.8,0.4-1.6,1-2C10.1,10.6,15.2,7,21,7c5.8,0,10.9,3.6,13,8.7C34.6,16.2,35,16.9,35,17.7z"/>
<path class="st0" d="M32.9,18.6c-0.4-0.2-0.9-0.1-1.1,0.4l-1,1.8L29.9,19c-0.1-0.3-0.4-0.5-0.7-0.5s-0.6,0.2-0.7,0.5l-0.9,1.8
	L26.7,19c-0.1-0.3-0.5-0.5-0.8-0.5l0,0c-0.4,0-0.7,0.3-0.7,0.6c-0.1-0.2-0.2-0.4-0.4-0.5c-0.4-0.2-0.9,0-1.1,0.4l-0.9,1.8L21.7,19
	c-0.1-0.3-0.4-0.5-0.7-0.5s-0.6,0.2-0.7,0.5l-0.9,1.8L18.5,19c-0.2-0.4-0.7-0.6-1.1-0.4c-0.2,0.1-0.4,0.3-0.4,0.5
	c-0.1-0.3-0.4-0.6-0.7-0.6l0,0c-0.3,0-0.6,0.2-0.8,0.5l-0.9,1.8L13.5,19c-0.3-0.6-1.2-0.6-1.5,0l-0.9,1.8l-1-1.8
	c-0.2-0.4-0.7-0.6-1.1-0.4c-0.4,0.2-0.6,0.7-0.4,1.1l1.7,3.3c0.3,0.6,1.2,0.6,1.5,0l0.9-1.8l0.9,1.8c0.3,0.6,1.2,0.6,1.5,0l1.5-3.1
	c0.1-0.1,0.2-0.2,0.2-0.4c0,0.1,0,0.1,0.1,0.2l1.6,3.3c0.3,0.6,1.2,0.6,1.5,0l0.9-1.8l0.9,1.8c0.3,0.6,1.2,0.6,1.5,0l1.6-3.3
	c0-0.1,0-0.1,0.1-0.2c0,0.2,0.1,0.3,0.2,0.4l1.5,3.1c0.3,0.6,1.2,0.6,1.5,0l0.9-1.8l0.9,1.8c0.3,0.6,1.2,0.6,1.5,0l1.7-3.3
	C33.5,19.3,33.3,18.8,32.9,18.6z"/>
<path class="st0" d="M34,15.7C31.9,10.6,26.8,7,21,7c-5.8,0-10.9,3.6-13,8.7c-0.6,0.4-1,1.2-1,2v6.6c0,0.8,0.4,1.6,1,2
	c2.1,5.1,7.1,8.7,13,8.7s10.9-3.6,13-8.7c0.6-0.4,1-1.2,1-2v-6.6C35,16.9,34.6,16.2,34,15.7z M31.9,15.3h-4.2
	c-0.5-2.2-1.3-4.2-2.4-5.6c-0.1-0.1-0.1-0.2-0.2-0.3C28,10.4,30.5,12.5,31.9,15.3z M21.8,8.8c2.2,0.8,3.6,4.2,4.2,6.5h-4.2V8.8z
	 M20.2,8.8v6.5h-4.2c0.5-1.9,1.2-3.4,2-4.6C18.5,9.9,19.2,9.1,20.2,8.8z M16.8,9.4c-0.1,0.1-0.1,0.2-0.2,0.3c-1,1.4-1.8,3.4-2.4,5.6
	h-4.2C11.5,12.5,14,10.4,16.8,9.4z M10.1,26.7h4.2c0.5,2,1.3,4.2,2.6,5.9C14,31.6,11.5,29.5,10.1,26.7z M20.2,33.2
	c-2.2-0.8-3.6-4.2-4.2-6.5h4.2V33.2z M21.8,33.2v-6.5h4.2C25.5,29.1,24.1,32.5,21.8,33.2z M25.2,32.6c1.3-1.7,2.1-3.8,2.6-5.9h4.2
	C30.5,29.5,28,31.6,25.2,32.6z M33.4,19.3c0,0,0,0.1,0,0.1v4.9c0,0.5-0.4,0.8-0.8,0.8H9.5c-0.5,0-0.8-0.4-0.8-0.8v-6.6
	c0-0.5,0.4-0.8,0.8-0.8h23.1c0.5,0,0.8,0.4,0.8,0.8V19.3z"/>
</svg>
